<svg xmlns="http://www.w3.org/2000/svg" viewBox="0 0 32 32"><title>esteeton</title><g id="ikonit"><path d="M13.64,28a6.87,6.87,0,0,1-3.43-12.83V13A8.84,8.84,0,1,0,21.42,25.37L20,23.86A6.9,6.9,0,0,1,13.64,28Z"/><path d="M24.87,24.86A8,8,0,0,0,22,20.67a11.11,11.11,0,0,0-4.53-1.62c-2.49-.49-3.35-.8-3.34-2.3h0v-2H22v-2H14.14V9.73a3.94,3.94,0,1,0-2,0v7h0c0,3.26,2.72,3.8,4.93,4.24a9.43,9.43,0,0,1,3.76,1.28A6.13,6.13,0,0,1,23,25.54,8.18,8.18,0,0,0,26,29.82l1.16-1.59A6.3,6.3,0,0,1,24.87,24.86ZM11.19,5.93a2,2,0,1,1,2,2A2,2,0,0,1,11.19,5.93Z"/></g></svg>