<svg xmlns="http://www.w3.org/2000/svg" viewBox="0 0 32 32"><title>ilmapallo</title><g id="ikonit"><path d="M21.88,8a6,6,0,1,0-12,0c0,3.5,2.76,6,4.41,7.52l.52.48-1,.88a3,3,0,0,0,1.3.72,2.2,2.2,0,0,0,.51,1.2,1.76,1.76,0,0,1,.45,1.14,1.86,1.86,0,0,1-.75,1.41,3.21,3.21,0,0,0-1.16,2.41,3.27,3.27,0,0,0,1.15,2.42,1.87,1.87,0,0,1,.76,1.42A1.74,1.74,0,0,1,15.4,29l1,1a3.14,3.14,0,0,0,1.17-2.41,3.26,3.26,0,0,0-1.16-2.42,1.89,1.89,0,0,1-.75-1.42,1.86,1.86,0,0,1,.75-1.41,3.21,3.21,0,0,0,1.16-2.41,3.16,3.16,0,0,0-.72-2,2.1,2.1,0,0,1-.23-.37,2.86,2.86,0,0,0,1.3-.71L17,16l.5-.47C19.11,14,21.88,11.49,21.88,8ZM11.36,8a4.54,4.54,0,1,1,9.08,0c0,2.87-2.47,5.13-4,6.48-.22.2-.42.38-.59.55-.17-.17-.38-.36-.61-.57C13.82,13.1,11.36,10.84,11.36,8Z"/><path d="M18.79,9.71l-1.21-.59a1.86,1.86,0,0,1-1.68,1.06,1.88,1.88,0,0,1-1.69-1.06L13,9.71a3.22,3.22,0,0,0,5.78,0Z"/><circle cx="17.81" cy="7.02" r="0.81"/><circle cx="13.99" cy="7.02" r="0.81"/></g></svg>