<svg xmlns="http://www.w3.org/2000/svg" viewBox="0 0 32 32"><title>info</title><g id="ikonit"><path d="M16,4.33a11.55,11.55,0,0,1,4.54.92,11.7,11.7,0,0,1,6.21,6.21,11.66,11.66,0,0,1,0,9.08,11.7,11.7,0,0,1-6.21,6.21,11.66,11.66,0,0,1-9.08,0,11.7,11.7,0,0,1-6.21-6.21,11.66,11.66,0,0,1,0-9.08,11.7,11.7,0,0,1,6.21-6.21A11.55,11.55,0,0,1,16,4.33M16,2A14,14,0,1,0,30,16,14,14,0,0,0,16,2Z"/><circle cx="16" cy="8.41" r="1.75"/><polygon points="12.15 23.74 12.15 21.44 15.3 21.44 15.3 14.64 12.15 14.64 12.15 12.34 17.77 12.34 17.77 21.44 20.4 21.44 20.4 23.74 12.15 23.74"/></g></svg>