<svg xmlns="http://www.w3.org/2000/svg" viewBox="0 0 32 32"><title>kahvikuppi</title><g id="ikonit"><path d="M15.67,11.91H17.8A3.19,3.19,0,0,1,21,8.72V6.59a5.33,5.33,0,0,0-5.32,5.32Z"/><path d="M13.52,8c3.24-1.08,5-2.35,5-6H16.38c0,2.12-.49,2.95-3.53,4-3.23,1.07-5,2.34-5,6H10C10,9.79,10.48,9,13.52,8Z"/><path d="M23.47,15.32a4.74,4.74,0,0,0-2.61.74l.31-2H4.5L7,30H18.71l.14-.9c.29-1.82,1.86-2.67,3.67-3.65,2.17-1.16,4.86-2.62,4.86-6.23A3.91,3.91,0,0,0,23.47,15.32ZM7,16.17H18.69l-.85,5.51h0l-.95,6.19H8.78Zm14.53,7.41a22.47,22.47,0,0,0-2,1.17L19.94,22h0c.58-3.76,2.24-4.55,3.53-4.55a1.78,1.78,0,0,1,1.78,1.77C25.25,21.45,23.83,22.33,21.51,23.58Z"/></g></svg>