<svg xmlns="http://www.w3.org/2000/svg" viewBox="0 0 32 32"><title>kaksi-sydanta</title><g id="ikonit"><path d="M28.26,8.49a5.92,5.92,0,0,0-4.2-1.74,5.52,5.52,0,0,0-4,1.58l-.29-.25a5.52,5.52,0,0,0-3.44-1.32h-.62a5.52,5.52,0,0,0-3.44,1.32L12,8.33a5.52,5.52,0,0,0-4-1.58A5.95,5.95,0,0,0,3.74,16.9c1.07,1.07,2,1.93,3,2.76a38.15,38.15,0,0,1,3.78,3.68l.69.87.77,1,.77-1,.69-.87A31.51,31.51,0,0,1,16,20.75a31.51,31.51,0,0,1,2.57,2.59l.69.87.77,1,.77-1,.69-.87a38.15,38.15,0,0,1,3.78-3.68c.95-.83,1.92-1.69,3-2.76A6,6,0,0,0,28.26,8.49ZM12,22.05A38.25,38.25,0,0,0,8,18.2c-.92-.81-1.87-1.65-2.9-2.68A4,4,0,0,1,7.94,8.7a4.21,4.21,0,0,1,1.19.17A4.35,4.35,0,0,1,12,11.19a4.34,4.34,0,0,1,2.8-2.31A4.14,4.14,0,0,1,16,8.7a4,4,0,0,1,2.82,6.82c-1,1-2,1.87-2.9,2.68A38.25,38.25,0,0,0,12,22.05Zm14.91-6.53c-1,1-2,1.87-2.9,2.68A38.25,38.25,0,0,0,20,22.05a30.34,30.34,0,0,0-2.56-2.61c.86-.76,1.76-1.56,2.73-2.54a6,6,0,0,0,1-7A3.62,3.62,0,0,1,24.06,8.7a4,4,0,0,1,2.82,6.82Z"/></g></svg>