<svg xmlns="http://www.w3.org/2000/svg" viewBox="0 0 32 32"><title>kala</title><g id="ikonit"><path d="M24.22,18.24a1.79,1.79,0,1,0-1.79-1.78A1.79,1.79,0,0,0,24.22,18.24Zm0-2.22a.44.44,0,0,1,.44.44.44.44,0,0,1-.88,0A.44.44,0,0,1,24.22,16Z"/><path d="M29.77,16.76a15.61,15.61,0,0,0-5-5.15,13.18,13.18,0,0,0-3.18-1.45A12.8,12.8,0,0,0,20,9.8a8.55,8.55,0,0,0-4.32-2.23,8.66,8.66,0,0,0-2.32-.16l-.81.09.68,3.17-.66.31a14.55,14.55,0,0,0-4.1,3.11L2,10l1.49,6.36a2.5,2.5,0,0,1,0,1.53L2,24.39l6.43-4.2a14.36,14.36,0,0,0,4.1,3.11,12.22,12.22,0,0,0,8.28,1l1.09-.25-.66-.9a11.42,11.42,0,0,1-1.9-3.74,7.79,7.79,0,0,1-.22-2.9,6.27,6.27,0,0,1,.88-2.6l.87-1.15H19.19a3.75,3.75,0,0,0-1,1.42,7.91,7.91,0,0,0-.54,2.06,8.92,8.92,0,0,0,.24,3.47,12,12,0,0,0,1.48,3.34,9.45,9.45,0,0,1-1.3.08,11.66,11.66,0,0,1-8.51-3.87,6.82,6.82,0,0,1-.81-1.11l0-.06-.05,0-.54.44L3.94,21.48l.95-3.15a4,4,0,0,0,0-2.38L3.94,12.8l3.59,2.45a6.9,6.9,0,0,1,1,.93l0,.05.58-.7a12.75,12.75,0,0,1,5.69-3.9c-.07-.49-.22-1.2-.28-1.55L14.3,8.87a7.66,7.66,0,0,1,2.89.75,12.86,12.86,0,0,1,2,1.55A11.11,11.11,0,0,1,24,12.85a14.12,14.12,0,0,1,4.28,4.29,14.35,14.35,0,0,1-2.5,2.95,12.5,12.5,0,0,1-2.92,2c-.1-.13-.19-.27-.29-.43A7.34,7.34,0,0,1,21.23,16v0l-1.43-.32v.05a7.58,7.58,0,0,0,.09,3.6,11.41,11.41,0,0,0,1.45,3.18,7.76,7.76,0,0,0,.72,1l.34.43.51-.22a13.71,13.71,0,0,0,3.84-2.46,16.16,16.16,0,0,0,3-3.66l.23-.38Z"/></g></svg>