<svg xmlns="http://www.w3.org/2000/svg" viewBox="0 0 32 32"><title>kannu</title><g id="ikonit"><path d="M29.56,7.52a5.06,5.06,0,0,0-5-5H3.24L4.5,4.31a5.68,5.68,0,0,1,1,3.25c0,2-.63,4.07-1.68,7.54-.47,1.54-1,3.29-1.59,5.44A7,7,0,0,0,9,29.5h9.25a6.92,6.92,0,0,0,5.48-2.67,7.23,7.23,0,0,0,1.29-6.27c-.69-2.78-1.36-5-1.89-6.74a23,23,0,0,1-1.38-6.28,2.74,2.74,0,0,1,5.47,0l.42,11.36L30,18.81ZM20.28,4.81a5,5,0,0,0-.81,2.73,16.76,16.76,0,0,0,.8,4.66,8.79,8.79,0,0,0-.93.55,2.4,2.4,0,0,1-1.45.57,2.43,2.43,0,0,1-1.45-.57,4.48,4.48,0,0,0-5.57,0,2.43,2.43,0,0,1-1.45.57A2.43,2.43,0,0,1,8,12.75c-.26-.17-.54-.35-.86-.52a17.51,17.51,0,0,0,.75-4.67,7.79,7.79,0,0,0-.5-2.75Zm1.66,20.6a4.61,4.61,0,0,1-3.66,1.77H9a4.69,4.69,0,0,1-3.75-1.86,4.75,4.75,0,0,1-.79-4.17C5.08,19,5.61,17.3,6.07,15.77c.14-.44.26-.85.38-1.25l.24.16a4.61,4.61,0,0,0,2.73,1,4.61,4.61,0,0,0,2.73-1,2.43,2.43,0,0,1,1.51-.59,2.47,2.47,0,0,1,1.51.59,4.38,4.38,0,0,0,5.45,0l.32-.21v0c.52,1.74,1.18,3.91,1.86,6.64A5,5,0,0,1,21.94,25.41Z"/></g></svg>