<svg xmlns="http://www.w3.org/2000/svg" viewBox="0 0 32 32"><title>kirja</title><g id="ikonit"><path d="M20.62,7.66h-.24V2H16.69a5,5,0,0,0-5,5v.66H3.56V26h7.88a5.46,5.46,0,0,1,4,1.39l.51.51h0L16,28a5.62,5.62,0,0,1,4.6-2H28.5V7.66ZM13.81,7a2.88,2.88,0,0,1,2.88-2.88h1.56V16.44H16.69a4.9,4.9,0,0,0-2.88.93Zm0,14.45A2.94,2.94,0,0,1,15,19.16V24l-.32-.32a3.32,3.32,0,0,1-.84-2.11ZM5.69,23.91V9.78h6V21.44a5.68,5.68,0,0,0,.6,2.5c-.27,0-.55,0-.85,0Zm20.69,0H20.63a8.39,8.39,0,0,0-3.54.69v-6h3.29V9.79h6Z"/></g></svg>