<svg xmlns="http://www.w3.org/2000/svg" viewBox="0 0 32 32"><title>kova-aani</title><g id="ikonit"><rect x="5.35" y="21.4" width="6.28" height="2.22" transform="translate(-13.43 12.6) rotate(-45.01)"/><rect x="10.66" y="24.8" width="5.81" height="2.22" transform="translate(-14.97 32.3) rotate(-75)"/><rect x="2.19" y="16.33" width="5.81" height="2.22" transform="translate(-4.34 1.91) rotate(-15)"/><path d="M28,8.8a5.81,5.81,0,0,0-9.91-4.1l-5,5H4.25L21.32,26.75V17.9l5-5A5.77,5.77,0,0,0,28,8.8ZM19.1,21.39,9.61,11.9h3.5l6,6Zm5.63-10-4.52,4.53-5.07-5.08,4.52-4.52a3.59,3.59,0,0,1,5.07,5.07Z"/></g></svg>