<svg xmlns="http://www.w3.org/2000/svg" viewBox="0 0 32 32"><title>kynä</title><g id="ikonit"><rect x="8.19" y="12.38" width="20.22" height="2.13" transform="translate(-4.15 16.88) rotate(-45)"/><rect x="4.64" y="8.84" width="20.22" height="2.13" transform="translate(-2.68 13.33) rotate(-45)"/><polygon points="6.13 18.99 5 23.19 9.2 22.07 6.13 18.99"/><path d="M23.92,26.78a6.54,6.54,0,0,0-4.27-1.49,6.59,6.59,0,0,0-4.28,1.49,4.56,4.56,0,0,1-3,1.09,4.53,4.53,0,0,1-3-1.09A6.59,6.59,0,0,0,5,25.29v2.13a4.58,4.58,0,0,1,3.05,1.09A6.58,6.58,0,0,0,12.32,30a6.59,6.59,0,0,0,4.28-1.49,4.81,4.81,0,0,1,6.1,0A6.54,6.54,0,0,0,27,30V27.87A4.58,4.58,0,0,1,23.92,26.78Z"/></g></svg>