<svg xmlns="http://www.w3.org/2000/svg" viewBox="0 0 32 32"><title>lahjapaketti</title><g id="ikonit"><path d="M26,9.46a4.21,4.21,0,0,0,.47-1.94,4.28,4.28,0,0,0-4.27-4.27c-3.2,0-5.14,2.3-6.21,4.28-1.08-2-3-4.28-6.21-4.28A4.28,4.28,0,0,0,5.53,7.52,4.22,4.22,0,0,0,6,9.46H4V28.88H28.05V9.46Zm-3.8-3.88a1.94,1.94,0,1,1,0,3.88H17.67C18.37,7.88,19.8,5.58,22.23,5.58ZM7.86,7.52a2,2,0,0,1,2-1.94c2.43,0,3.86,2.3,4.55,3.88H9.81A2,2,0,0,1,7.86,7.52Zm7,19H6.31V18h8.54Zm0-10.88H6.31V11.79h8.54ZM25.72,26.55H17.18V18h8.54Zm0-10.88H17.18V11.79h8.54Z"/></g></svg>