<svg xmlns="http://www.w3.org/2000/svg" viewBox="0 0 32 32"><title>laiva</title><g id="ikonit"><path d="M28,20.71l-1.8-4.93H2l3.6,5.39-.31.2a3.74,3.74,0,0,1-2.24.83V24a5.45,5.45,0,0,0,3.22-1.11,3.63,3.63,0,0,1,2.17-.81,3.63,3.63,0,0,1,2.16.81A5.48,5.48,0,0,0,13.83,24a5.42,5.42,0,0,0,3.22-1.11,3.63,3.63,0,0,1,2.17-.81,3.66,3.66,0,0,1,2.17.81,5.23,5.23,0,0,0,6.44,0A3.66,3.66,0,0,1,30,22.08v-1.8A4.63,4.63,0,0,0,28,20.71Zm-5.63.66a5.1,5.1,0,0,0-6.3,0,3.74,3.74,0,0,1-2.24.83,3.69,3.69,0,0,1-2.24-.83,5.36,5.36,0,0,0-3.15-1.09,4.71,4.71,0,0,0-1.18.14L5.37,17.58H24.94l1.48,4.07a3.23,3.23,0,0,1-1.81.55A3.74,3.74,0,0,1,22.37,21.37Z"/><path d="M25.47,13.7V8.07H21.52L19,11.92h-8.7l-1,1.81H25.47Zm-3-3.82h1.19v2H21.11Z"/></g></svg>