<svg xmlns="http://www.w3.org/2000/svg" viewBox="0 0 32 32"><title>lamppu</title><g id="ikonit"><path d="M10.91,24.91a5.09,5.09,0,0,0,10.18,0V22.43H10.91Zm2.35-.13h5.48v.13a2.74,2.74,0,1,1-5.48,0Z"/><path d="M16,2.08a9,9,0,0,0-9,9,8.58,8.58,0,0,0,1.76,5.35,6.28,6.28,0,0,1,1.37,4.05h2.35a8.58,8.58,0,0,0-1.76-5.35,6.28,6.28,0,0,1-1.37-4.05,6.65,6.65,0,1,1,13.3,0,6.28,6.28,0,0,1-1.37,4.05,8.58,8.58,0,0,0-1.76,5.35h2.35a6.28,6.28,0,0,1,1.37-4.05A8.58,8.58,0,0,0,25,11.08,9,9,0,0,0,16,2.08Z"/><path d="M17.17,20.48V12.26h2a1.18,1.18,0,0,0,0-2.35H12.87a1.18,1.18,0,0,0,0,2.35h2v8.22Z"/></g></svg>