<svg xmlns="http://www.w3.org/2000/svg" viewBox="0 0 32 32"><title>lasi</title><g id="ikonit"><path d="M17.09,21.33c4-.48,7-3.57,7-7.28a23,23,0,0,0-.92-5.74,21.31,21.31,0,0,1-.84-5.2V2H9.6V3.11a21.31,21.31,0,0,1-.84,5.2,23,23,0,0,0-.91,5.74c0,3.71,3.06,6.8,7,7.28v6.46H9V30H23V27.79H17.09ZM11.77,4.21H20.2a26.56,26.56,0,0,0,.87,4.63c.16.66.32,1.29.46,1.93a7.49,7.49,0,0,0-.85.3,2.84,2.84,0,0,1-1.27.31,2.79,2.79,0,0,1-1.26-.31,5.22,5.22,0,0,0-4.33,0,2.79,2.79,0,0,1-1.26.31,2.84,2.84,0,0,1-1.27-.31,7.28,7.28,0,0,0-.84-.3c.13-.64.29-1.27.45-1.93A26.56,26.56,0,0,0,11.77,4.21Zm-1.71,9.84c0-.37,0-.72,0-1.07l.34.14a5.08,5.08,0,0,0,2.12.47,5,5,0,0,0,2.11-.47,2.94,2.94,0,0,1,2.63,0,5,5,0,0,0,2.11.47,5.08,5.08,0,0,0,2.12-.47l.34-.14c0,.35,0,.71,0,1.07,0,2.83-2.66,5.14-5.92,5.14S10.06,16.88,10.06,14.05Z"/></g></svg>