<svg xmlns="http://www.w3.org/2000/svg" viewBox="0 0 32 32"><title>lastenvaunut</title><g id="ikonit"><path d="M9.48,23.66a2.8,2.8,0,1,0,2.8,2.8A2.79,2.79,0,0,0,9.48,23.66Z"/><path d="M27.21,23.66A2.8,2.8,0,1,0,30,26.46,2.8,2.8,0,0,0,27.21,23.66Z"/><path d="M29.48,16.17h0V13.55A3.14,3.14,0,0,0,28.26,11l-1-.76A.55.55,0,0,1,27,9.76l.13-.94a3.42,3.42,0,0,0-.8-2.69A3.38,3.38,0,0,0,23.82,5a3.55,3.55,0,0,0-.46,0l-.94.13a.56.56,0,0,1-.51-.21l-.76-1a3.11,3.11,0,0,0-2.51-1.25H16V14.09H9.09l-.73-2.56a5.15,5.15,0,0,0-4.93-3.7H2V9.92H3.43a3.07,3.07,0,0,1,2.93,2.19L8.11,18.3a6.64,6.64,0,0,0,6.37,4.82H22A7.51,7.51,0,0,0,29.48,16.17ZM18.08,4.74h.56a1.07,1.07,0,0,1,.84.42l.76,1a2.66,2.66,0,0,0,2.11,1l.36,0,.93-.13a1.27,1.27,0,0,1,1.15.43,1.31,1.31,0,0,1,.31,1L25,9.48a2.64,2.64,0,0,0,1,2.46l1,.77a1.07,1.07,0,0,1,.42.84v.53H18.08ZM22,21H14.48a4.55,4.55,0,0,1-4.36-3.3l-.44-1.56H27.39A5.43,5.43,0,0,1,22,21Z"/></g></svg>