<svg xmlns="http://www.w3.org/2000/svg" viewBox="0 0 32 32"><title>lentokone</title><g id="ikonit"><path d="M13,30,8,24,2,19l2.12-2.12a3.22,3.22,0,0,1,2.3-1,3.13,3.13,0,0,1,.86.12l2.61.72,1.86-1.86L3.27,7.69,5.44,5.52a3.32,3.32,0,0,1,3.85-.61l8.24,4.23,6-6A3.68,3.68,0,0,1,26.21,2a3.72,3.72,0,0,1,2.65,1.1A3.68,3.68,0,0,1,30,5.74a3.72,3.72,0,0,1-1.1,2.65l-6,6,3.94,7.93a3.3,3.3,0,0,1-.62,3.82L24,28.38,17,20.21l-1.85,1.86.72,2.6a3.24,3.24,0,0,1-.84,3.16ZM5.21,18.86l4.32,3.56,3.57,4.33.44-.44a1.08,1.08,0,0,0,.28-1.06l-1.05-3.82,4.4-4.4,6.91,8.16.53-.53a1.16,1.16,0,0,0,.22-1.33L20.19,14l7.14-7.15a1.55,1.55,0,0,0,.47-1.12,1.58,1.58,0,0,0-.47-1.12,1.54,1.54,0,0,0-1.12-.46,1.57,1.57,0,0,0-1.12.46l-7.15,7.15L8.31,6.84a1.09,1.09,0,0,0-.53-.13A1.14,1.14,0,0,0,7,7.05l-.52.52,8.48,7.22-4.4,4.4L6.71,18.13a1.35,1.35,0,0,0-.29,0,1.12,1.12,0,0,0-.77.32Z"/></g></svg>