<svg xmlns="http://www.w3.org/2000/svg" viewBox="0 0 32 32"><title>linnut</title><g id="ikonit"><path d="M20.65,18.13l-.73-.72a5.05,5.05,0,0,0-7.14,0l-.73.72-.72-.72a5.06,5.06,0,0,0-7.15,0l-.73.72L2,16.67,2.73,16a7.13,7.13,0,0,1,9.32-.64,7.16,7.16,0,0,1,9.33.64l.73.72Z"/><path d="M28.55,26.38l-.73-.73a4.82,4.82,0,0,0-6.8,0l-.72.72-.73-.72a4.81,4.81,0,0,0-6.79,0l-.73.73-1.46-1.47.73-.72a6.89,6.89,0,0,1,9-.63,6.87,6.87,0,0,1,9,.63l.73.72Z"/><path d="M28.55,9.89l-.73-.73a4.84,4.84,0,0,0-6.8,0l-.72.73-.73-.73a4.83,4.83,0,0,0-6.79,0l-.73.73L10.59,8.43l.73-.73a6.91,6.91,0,0,1,9-.63,6.9,6.9,0,0,1,9,.63l.73.73Z"/></g></svg>