<?xml version="1.0" encoding="UTF-8"?>
<svg width="24px" height="26px" viewBox="0 0 24 26" version="1.1" xmlns="http://www.w3.org/2000/svg" xmlns:xlink="http://www.w3.org/1999/xlink">
    <g id="Icons/.ticket" stroke="none" stroke-width="1" fill="none" fill-rule="evenodd">
        <path d="M11.1339,0.6094 C11.1339,3.4784 9.9709,6.0754 8.0909,7.9564 L3.6639,12.3824 C1.7839,14.2624 0.5939,17.0634 0.5939,19.9314 L12.9169,25.2024 C12.9169,22.3334 14.0799,19.7364 15.9599,17.8554 L20.3869,13.4274 C22.2689,11.5474 23.4299,8.7484 23.4299,5.8794 L11.1339,0.6094 Z M19.6759,10.0464 C19.4319,9.8004 19.0919,9.6614 18.7479,9.6614 C18.4009,9.6614 18.0619,9.8014 17.8159,10.0474 C17.5709,10.2944 17.4299,10.6324 17.4299,10.9794 C17.4299,11.3274 17.5709,11.6664 17.8159,11.9124 C17.8759,11.9724 17.9439,12.0274 18.0159,12.0744 L14.0969,15.9924 C12.5509,17.5394 11.4419,19.4064 10.8299,21.4434 L3.4039,18.2674 C3.7219,16.7384 4.4669,15.3054 5.5279,14.2464 L9.9539,9.8194 C10.3559,9.4184 10.7269,8.9954 11.0679,8.5524 C11.3119,8.7974 11.6519,8.9384 11.9959,8.9384 C12.3419,8.9384 12.6819,8.7974 12.9269,8.5504 C13.1729,8.3064 13.3149,7.9654 13.3149,7.6204 C13.3149,7.2734 13.1729,6.9334 12.9269,6.6894 C12.7869,6.5474 12.6139,6.4434 12.4269,6.3784 C12.7469,5.7324 13.0129,5.0614 13.2209,4.3704 L20.6259,7.5444 C20.4449,8.4314 20.1179,9.2814 19.6759,10.0464 L19.6759,10.0464 Z" id="Fill-39"></path>
        <path d="M15.962,8.123 C15.312,7.796 14.52,8.06 14.194,8.71 C13.868,9.359 14.132,10.151 14.781,10.478 C14.971,10.573 15.173,10.616 15.372,10.616 C15.855,10.616 16.318,10.352 16.55,9.89 C16.875,9.239 16.613,8.447 15.962,8.123" id="Fill-40"></path>
    </g>
</svg>