<svg xmlns="http://www.w3.org/2000/svg" viewBox="0 0 32 32"><title>maapallo</title><g id="ikonit"><path d="M16,2A14,14,0,1,0,30,16,14,14,0,0,0,16,2Zm1.05,9.35c1.37,0,2.74-.09,4.11-.2a15.15,15.15,0,0,1,.75,3.8H17.05Zm0-2.11V4.79A15.54,15.54,0,0,1,20.3,9.1C19.22,9.17,18.13,9.22,17.05,9.24ZM15,4.79V9.24c-1.08,0-2.17-.07-3.25-.14A15.54,15.54,0,0,1,15,4.79Zm0,6.56V15H10.09a15.15,15.15,0,0,1,.75-3.8C12.21,11.26,13.58,11.33,15,11.35ZM8,15H4.15a11.88,11.88,0,0,1,1.31-4.47c1.08.18,2.16.34,3.24.46A17.84,17.84,0,0,0,8,15Zm0,2.1a17.84,17.84,0,0,0,.72,4c-1.08.12-2.16.28-3.24.46a11.88,11.88,0,0,1-1.31-4.47Zm2.11,0H15v3.6c-1.37,0-2.74.09-4.11.2A15.15,15.15,0,0,1,10.09,17.05ZM15,22.76v4.45A15.54,15.54,0,0,1,11.7,22.9C12.78,22.83,13.87,22.78,15,22.76Zm2.1,4.45V22.76c1.08,0,2.17.07,3.25.14A15.54,15.54,0,0,1,17.05,27.21Zm0-6.56v-3.6h4.86a15.15,15.15,0,0,1-.75,3.8C19.79,20.74,18.42,20.67,17.05,20.65Zm7-3.6h3.83a11.88,11.88,0,0,1-1.31,4.47c-1.08-.18-2.16-.34-3.24-.46A17.84,17.84,0,0,0,24,17.05ZM24,15a17.29,17.29,0,0,0-.72-4c1.08-.12,2.16-.28,3.24-.46A11.88,11.88,0,0,1,27.85,15Zm1.25-6.4c-.91.14-1.82.25-2.74.35a17.19,17.19,0,0,0-2.6-4.13A11.91,11.91,0,0,1,25.27,8.55ZM12.08,4.77A17.23,17.23,0,0,0,9.47,8.9c-.92-.1-1.83-.21-2.74-.35A11.88,11.88,0,0,1,12.08,4.77ZM6.73,23.45c.91-.14,1.82-.25,2.73-.35a17.59,17.59,0,0,0,2.62,4.13A11.88,11.88,0,0,1,6.73,23.45Zm13.19,3.78a17.59,17.59,0,0,0,2.62-4.13c.91.1,1.82.21,2.73.35A11.88,11.88,0,0,1,19.92,27.23Z"/></g></svg>