<svg xmlns="http://www.w3.org/2000/svg" viewBox="0 0 32 32"><title>mies</title><g id="ikonit"><path d="M16,9.18A3.58,3.58,0,1,0,12.4,5.6,3.57,3.57,0,0,0,16,9.18Zm0-5.13A1.55,1.55,0,1,1,14.42,5.6,1.55,1.55,0,0,1,16,4.05Z"/><polygon points="17.45 27.98 14.49 27.98 14.49 21.59 12.47 21.59 12.47 30 19.48 30 19.48 21.59 17.45 21.59 17.45 27.98"/><path d="M18.67,11.13H13.28a3.71,3.71,0,0,0-3.71,3.71v6.74h2V14.84a1.69,1.69,0,0,1,1.69-1.69h5.39a1.69,1.69,0,0,1,1.68,1.69v6.74h2V14.84A3.72,3.72,0,0,0,18.67,11.13Z"/></g></svg>