<svg xmlns="http://www.w3.org/2000/svg" viewBox="0 0 32 32"><title>mies-ja-nainen</title><g id="ikonit"><path d="M8.2,9.45A3.46,3.46,0,1,0,4.74,6,3.45,3.45,0,0,0,8.2,9.45Zm0-5A1.5,1.5,0,1,1,6.7,6,1.5,1.5,0,0,1,8.2,4.49Z"/><polygon points="9.63 27.64 6.76 27.64 6.76 21.47 4.8 21.47 4.8 29.6 11.59 29.6 11.59 21.47 9.63 21.47 9.63 27.64"/><path d="M10.81,11.34H5.59A3.59,3.59,0,0,0,2,14.92v6.53H4V14.92a1.64,1.64,0,0,1,1.63-1.63h5.22a1.64,1.64,0,0,1,1.63,1.63v6.53h2V14.92A3.59,3.59,0,0,0,10.81,11.34Z"/><path d="M23.19,9.41A3.46,3.46,0,1,0,19.73,6,3.45,3.45,0,0,0,23.19,9.41Zm0-4.95A1.5,1.5,0,1,1,21.69,6,1.5,1.5,0,0,1,23.19,4.46Z"/><polygon points="24.62 27.6 21.75 27.6 21.75 23.36 19.8 23.36 19.8 29.55 26.58 29.55 26.58 23.36 24.62 23.36 24.62 27.6"/><path d="M27.89,14.07a3.58,3.58,0,0,0-3.5-2.77H22a3.57,3.57,0,0,0-3.49,2.76l-2.15,9.07,1.91.45,2.14-9.07A1.63,1.63,0,0,1,22,13.26h2.38A1.61,1.61,0,0,1,26,14.52l2.12,9.06,1.9-.44Z"/></g></svg>