<svg xmlns="http://www.w3.org/2000/svg" viewBox="0 0 32 32"><title>nainen</title><g id="ikonit"><path d="M16,9.19a3.57,3.57,0,1,0-3.57-3.57A3.57,3.57,0,0,0,16,9.19Zm0-5.12a1.55,1.55,0,1,1-1.55,1.55A1.55,1.55,0,0,1,16,4.07Z"/><polygon points="17.44 27.98 14.48 27.98 14.48 23.6 12.46 23.6 12.46 30 19.46 30 19.46 23.6 17.44 23.6 17.44 27.98"/><path d="M20.82,14a3.7,3.7,0,0,0-3.61-2.87H14.74A3.69,3.69,0,0,0,11.14,14L8.92,23.37l2,.46,2.21-9.37a1.69,1.69,0,0,1,1.64-1.3h2.47a1.69,1.69,0,0,1,1.64,1.3L21,23.83l2-.46Z"/></g></svg>