<svg xmlns="http://www.w3.org/2000/svg" viewBox="0 0 32 32"><title>omena</title><g id="ikonit"><path d="M25.22,12.9a6.18,6.18,0,0,0-4.58-2,6.58,6.58,0,0,0-3.25.86,2.91,2.91,0,0,1-2.84,0,6.59,6.59,0,0,0-3.26-.86,6.18,6.18,0,0,0-4.57,2A6.48,6.48,0,0,0,5,17.8a14.19,14.19,0,0,0,1.16,4.41,23.05,23.05,0,0,1,.87,2.55C8,28.48,9.7,30,12.83,30A6.7,6.7,0,0,0,16,29.22a6.7,6.7,0,0,0,3.14.78c3.13,0,4.81-1.52,5.78-5.24a23.05,23.05,0,0,1,.87-2.55,14.19,14.19,0,0,0,1.16-4.41A6.48,6.48,0,0,0,25.22,12.9Zm-.41,4.75a12.2,12.2,0,0,1-1,3.8,24.86,24.86,0,0,0-.94,2.77c-.65,2.48-1.37,3.66-3.73,3.66a4.6,4.6,0,0,1-2.55-.77l-.59-.4-.59.4a4.6,4.6,0,0,1-2.55.77c-1.88,0-2.92-.55-3.73-3.66a24.86,24.86,0,0,0-.94-2.77,12.48,12.48,0,0,1-1-3.8,4.33,4.33,0,0,1,1.14-3.31,4.08,4.08,0,0,1,3-1.29,4.47,4.47,0,0,1,2.21.58,5,5,0,0,0,4.92,0,4.48,4.48,0,0,1,2.22-.58,4.08,4.08,0,0,1,3,1.29A4.33,4.33,0,0,1,24.81,17.65Z"/><path d="M16.15,9.29c1.88,0,3.93,0,5.38-1.5S23,4,23,2h-.39c-1.88,0-3.93,0-5.38,1.5s-1.5,3.79-1.5,5.77Z"/></g></svg>