<svg xmlns="http://www.w3.org/2000/svg" viewBox="0 0 32 32"><title>paikkamerkki</title><g id="ikonit"><path d="M16,8.3a4.2,4.2,0,1,0,4.19,4.19A4.19,4.19,0,0,0,16,8.3Zm0,6.29a2.1,2.1,0,1,1,2.1-2.1A2.1,2.1,0,0,1,16,14.59Z"/><path d="M23.5,5.07a10.67,10.67,0,0,0-15,0c-4.14,4.1-3.86,10.48,0,14.84S14.59,27.18,16,30c1.42-2.8,3.53-5.6,7.49-10.07S27.64,9.17,23.5,5.07ZM21.93,18.52A74,74,0,0,0,16,25.87a75.22,75.22,0,0,0-5.92-7.35,9.46,9.46,0,0,1-2.47-6.15A7.87,7.87,0,0,1,10,6.56a8.58,8.58,0,0,1,12,0,7.84,7.84,0,0,1,2.38,5.81A9.56,9.56,0,0,1,21.93,18.52Z"/></g></svg>