<svg xmlns="http://www.w3.org/2000/svg" viewBox="0 0 32 32"><title>pelikonsoli</title><g id="ikonit"><path d="M29.66,18.67,27.09,12A7.6,7.6,0,0,0,20,7.13H12A7.6,7.6,0,0,0,4.91,12L2.34,18.67a4.52,4.52,0,0,0,2.45,5.88,4.52,4.52,0,0,0,4.82-.89L12.2,21.3a3.79,3.79,0,0,1,2.56-1h2.48a3.79,3.79,0,0,1,2.56,1c2,1.86,2.54,2.31,2.58,2.36a4.51,4.51,0,0,0,7.28-5Zm-3.25,3.94a2.4,2.4,0,0,1-2.59-.48l-2.6-2.38a5.92,5.92,0,0,0-4-1.54H14.76a5.9,5.9,0,0,0-4,1.54c-2.56,2.34-2.6,2.37-2.61,2.39a2.42,2.42,0,0,1-2.59.47,2.42,2.42,0,0,1-1.31-3.16l2.58-6.69A5.55,5.55,0,0,1,12,9.22H20a5.57,5.57,0,0,1,3.14,1,5.64,5.64,0,0,1,2,2.57l2.57,6.67v0A2.42,2.42,0,0,1,26.41,22.61Z"/><circle cx="19.19" cy="14.66" r="0.97"/><circle cx="22.86" cy="14.66" r="0.97"/><circle cx="21.03" cy="16.5" r="0.97"/><circle cx="21.03" cy="12.83" r="0.97"/><polygon points="11.5 12.24 9.94 12.24 9.94 13.88 8.29 13.88 8.29 15.44 9.94 15.44 9.94 17.09 11.5 17.09 11.5 15.44 13.14 15.44 13.14 13.88 11.5 13.88 11.5 12.24"/></g></svg>