<svg xmlns="http://www.w3.org/2000/svg" viewBox="0 0 32 32"><title>polkupyora</title><g id="ikonit"><path d="M13.66,11.14V9.58a8.71,8.71,0,0,1-2.17-.24A9.73,9.73,0,0,0,9,9.06v1.56a8.16,8.16,0,0,1,2.16.24A10.3,10.3,0,0,0,13.66,11.14Z"/><path d="M24.81,14.5a5.76,5.76,0,0,0-.94.09l-1.7-4.86A3.63,3.63,0,0,0,18.34,7H17V8.54h1.3a2.1,2.1,0,0,1,2.36,1.7l.68,1.93H10.89L9.2,14.91a5.19,5.19,0,1,0,3.11,5.56h0a5.53,5.53,0,0,0,4.7-2.64L18.19,16a4.76,4.76,0,0,1,3.73-2.25l.48,1.36a5.18,5.18,0,1,0,2.41-.6ZM7.19,23.32a3.63,3.63,0,0,1,0-7.26,3.67,3.67,0,0,1,1.19.2l-1.86,3,.67,1.18h3.54A3.63,3.63,0,0,1,7.19,23.32Zm3.54-4.41H8.57L9.7,17.08A3.64,3.64,0,0,1,10.73,18.91Zm6.13-3.74L15.73,17a4,4,0,0,1-3.38,1.89h0a5.15,5.15,0,0,0-1.78-3.18l1.23-2h6.33A6.57,6.57,0,0,0,16.86,15.17Zm8,8.15a3.63,3.63,0,0,1-1.89-6.72L24.08,20l1.47-.52-1.16-3.34a3,3,0,0,1,.42,0,3.63,3.63,0,0,1,0,7.26Z"/></g></svg>