<svg xmlns="http://www.w3.org/2000/svg" viewBox="0 0 32 32"><title>porkkana</title><g id="ikonit"><path d="M29.4,27.52c-.13-.48-3-10.48-7.22-16.27l-.07-.1a16,16,0,0,0-1.65-1.93,8.16,8.16,0,0,0-10.27-.87l0,0A3.56,3.56,0,0,1,10,5.85a8.32,8.32,0,0,1,.8-2.12L9.64,3.12l-1.1-.6A10.7,10.7,0,0,0,7.4,5.77L3.8,2.25,2,4,5.49,7.41a12.07,12.07,0,0,0-3.18,1L3.5,10.63c.8-.42,3.15-1.29,4.65-.62l.16.15a7.72,7.72,0,0,0,.82,10.13,15.75,15.75,0,0,0,2,1.62l.1.07C17.13,26.1,27.36,28.91,27.85,29l2.15.59ZM11.13,18.73l-.21-.19a5.28,5.28,0,0,1,0-7.57,5.57,5.57,0,0,1,7.75,0l.19.2a9.53,9.53,0,0,0-5,2.62A9.1,9.1,0,0,0,11.13,18.73Zm5.48,3.5a31.47,31.47,0,0,1-3.11-1.72,6.65,6.65,0,0,1,2.1-5,7,7,0,0,1,5.08-2.06,31.66,31.66,0,0,1,1.76,3.05,7.15,7.15,0,0,0-3.8,2A6.91,6.91,0,0,0,16.61,22.23ZM19,23.32a4.55,4.55,0,0,1,1.41-3.06,4.72,4.72,0,0,1,3.14-1.38c1.19,2.67,2.13,5.32,2.72,7.11C24.45,25.41,21.74,24.49,19,23.32Z"/></g></svg>