<svg xmlns="http://www.w3.org/2000/svg" viewBox="0 0 32 32"><title>pullonavaaja</title><g id="ikonit"><path d="M25.21,7.54A5.94,5.94,0,0,0,22,4.33L17.46,2.45A5.84,5.84,0,0,0,15.2,2,5.94,5.94,0,0,0,9.71,5.66c-1.05,2.54-.27,4.48.42,6.19s1.38,3.42.33,6A21.65,21.65,0,0,1,8.19,21.6,15,15,0,0,0,6.6,24.18a4.09,4.09,0,0,0,0,3.2,4.23,4.23,0,0,0,2.29,2.3,4.34,4.34,0,0,0,1.63.32h0a4.24,4.24,0,0,0,1.61-.32h0a4.11,4.11,0,0,0,2.23-2.29,15.74,15.74,0,0,0,.7-2.94,20.57,20.57,0,0,1,1.07-4.29c1.06-2.54,2.7-3.25,4.44-4s3.62-1.54,4.67-4.08A6,6,0,0,0,25.21,7.54Zm-11,11.83A22.33,22.33,0,0,0,13,24.08a14.1,14.1,0,0,1-.58,2.51,2.07,2.07,0,0,1-1.11,1.19h0a2.15,2.15,0,0,1-1.67,0A2.18,2.18,0,0,1,8.44,26.6,2.09,2.09,0,0,1,8.5,25a14.67,14.67,0,0,1,1.37-2.19,22.51,22.51,0,0,0,2.48-4.17,8.17,8.17,0,0,0,.31-5.8,4.46,4.46,0,0,0,1.84,0,2.1,2.1,0,0,1,2.24.93A4.45,4.45,0,0,0,18.08,15,8.15,8.15,0,0,0,14.21,19.37Zm9.1-8.07a4.24,4.24,0,0,1-1.59,2,2.28,2.28,0,0,1-2.2.19,2.38,2.38,0,0,1-1.16-.94,4.09,4.09,0,0,0-1.81-1.47,4,4,0,0,0-2.31-.24,2.45,2.45,0,0,1-1.48-.15A2.28,2.28,0,0,1,11.34,9a4.15,4.15,0,0,1,.27-2.53,3.86,3.86,0,0,1,3.59-2.4,3.8,3.8,0,0,1,1.48.3l4.53,1.87a3.89,3.89,0,0,1,2.1,5.08Z"/></g></svg>