<svg xmlns="http://www.w3.org/2000/svg" viewBox="0 0 32 32"><title>puu1</title><g id="ikonit"><path d="M25.92,14.56l-.17-.23a1.05,1.05,0,0,1,0-1.24l.17-.22a4.58,4.58,0,0,0-4.2-7.28l-.28,0A1.06,1.06,0,0,1,20.37,5l-.12-.26a4.59,4.59,0,0,0-8.4,0L11.73,5a1,1,0,0,1-1.07.62l-.28,0a4.59,4.59,0,0,0-4.2,7.28l.16.22a1,1,0,0,1,0,1.24l-.16.23a4.53,4.53,0,0,0-.44,4.79A5,5,0,0,0,10.26,22h3.11a1.5,1.5,0,0,1,1.57,1.68v4.11H7V30H25.14V27.79h-8V23.68A1.5,1.5,0,0,1,18.73,22h3.11a5,5,0,0,0,4.52-2.65A4.53,4.53,0,0,0,25.92,14.56Zm-1.54,3.79a2.75,2.75,0,0,1-2.54,1.44H18.73a4,4,0,0,0-1.58.32v-2l4.1-4.09-1.56-1.57L17.15,15V9.29H14.94V15l-2.53-2.54-1.56,1.57,4.09,4.09v2a3.9,3.9,0,0,0-1.57-.32H10.26a2.76,2.76,0,0,1-2.55-1.44A2.36,2.36,0,0,1,8,15.86l.17-.22a3.26,3.26,0,0,0,0-3.85L8,11.56a2.39,2.39,0,0,1,1.9-3.79h.28l.28,0a2.17,2.17,0,0,0,.36,0,3.26,3.26,0,0,0,3-1.94l.11-.26a2.38,2.38,0,0,1,4.36,0l.11.26a3.26,3.26,0,0,0,3,1.94,2.17,2.17,0,0,0,.36,0l.28,0a2.39,2.39,0,0,1,2.18,3.78l-.17.23a3.26,3.26,0,0,0,0,3.85l.17.22A2.33,2.33,0,0,1,24.38,18.35Z"/></g></svg>