<svg xmlns="http://www.w3.org/2000/svg" viewBox="0 0 32 32"><title>puu2</title><g id="ikonit"><path d="M22.77,15.17c0-.47.31-.89.83-1.52A5,5,0,0,0,25,10.45C25,8,22.9,7,21.76,6.42a4.52,4.52,0,0,1-.65-.34A4.72,4.72,0,0,1,20.31,5C19.6,3.8,18.51,2,16,2s-3.58,1.81-4.27,3A4.69,4.69,0,0,1,11,6.09a5.06,5.06,0,0,1-.68.35C9.15,7,7,8,7,10.45a5,5,0,0,0,1.42,3.2c.51.63.83,1,.83,1.52a1.43,1.43,0,0,1-.39.93A4,4,0,0,0,8,18.69c0,2.17,1.83,3.53,3.6,4.84S15,26.11,15,28.08h0V30H17V28.08c0-2,1.68-3.22,3.47-4.55s3.6-2.67,3.6-4.84a4,4,0,0,0-.89-2.59A1.43,1.43,0,0,1,22.77,15.17Zm-1.18,2a2.13,2.13,0,0,1,.53,1.47c0,1.2-1.31,2.17-2.82,3.29A20.81,20.81,0,0,0,17,23.89V21.41l2.94-2.94L18.55,17.1,17,18.68V15l3.57-3.58L19.19,10,17,12.24V7.49H15v4.75L12.83,10l-1.37,1.37L15,15v3.71L13.47,17.1,12.1,18.47,15,21.41v2.48A20.81,20.81,0,0,0,12.72,22c-1.51-1.12-2.82-2.09-2.82-3.29a2.13,2.13,0,0,1,.53-1.47,3.26,3.26,0,0,0,.75-2,4.32,4.32,0,0,0-1.26-2.74,3.21,3.21,0,0,1-1-2c0-.71.16-1.32,2.19-2.26a5.52,5.52,0,0,0,1.07-.59A5.49,5.49,0,0,0,13.41,6c.73-1.27,1.27-2,2.6-2s1.88.78,2.65,2.05a5.77,5.77,0,0,0,1.26,1.63,5.62,5.62,0,0,0,1,.56c1.26.59,2.15,1.1,2.15,2.28a3.21,3.21,0,0,1-1,2,4.32,4.32,0,0,0-1.26,2.74A3.26,3.26,0,0,0,21.59,17.22Z"/></g></svg>