<svg xmlns="http://www.w3.org/2000/svg" viewBox="0 0 32 32"><title>saapas</title><g id="ikonit"><path d="M15.59,3h0V13.25A3,3,0,0,1,13.75,16L6.2,19.31a4.55,4.55,0,0,0-2.7,4.16v3.6S5.52,29,7.32,29A5,5,0,0,0,10,28.29a2.91,2.91,0,0,1,1.61-.44,2.93,2.93,0,0,1,1.61.44,5,5,0,0,0,2.67.71,5,5,0,0,0,2.68-.71,3.17,3.17,0,0,1,3.22,0,5,5,0,0,0,2.67.71c1.74,0,3.88-1.8,3.88-1.8l0-24.2ZM26.07,26.13a2.15,2.15,0,0,1-1.61.61h-.13a2.64,2.64,0,0,1-1.47-.44,5,5,0,0,0-2.68-.71,5,5,0,0,0-2.68.71,2.88,2.88,0,0,1-1.61.44,2.93,2.93,0,0,1-1.61-.44,5,5,0,0,0-2.67-.71,5,5,0,0,0-2.68.71,2.91,2.91,0,0,1-1.61.44A2,2,0,0,1,5.76,26V24.67H26.07Zm0-3.72H6a2.27,2.27,0,0,1,1.09-1l7.54-3.28a5.27,5.27,0,0,0,3.17-4.85v-8h8.29Z"/></g></svg>