<svg xmlns="http://www.w3.org/2000/svg" viewBox="0 0 32 32"><title>silmalasit</title><g id="ikonit"><path d="M30,15H27.92A5.33,5.33,0,0,0,18,13.34a3.24,3.24,0,0,0-4,0A5.33,5.33,0,0,0,4.08,15H2v1.87H4.08a5.34,5.34,0,0,0,10.59-.93c0-.13,0-.25,0-.38a1.4,1.4,0,0,1,2.7,0c0,.13,0,.25,0,.38a5.34,5.34,0,0,0,10.59.93H30ZM9.33,19.38a3.47,3.47,0,1,1,3.44-3.93,3.57,3.57,0,0,0,0,.47h.07A3.47,3.47,0,0,1,9.33,19.38Zm13.34,0a3.47,3.47,0,0,1-3.47-3.46h.07a3.57,3.57,0,0,0,0-.47,3.47,3.47,0,1,1,3.44,3.93Z"/></g></svg>