<svg xmlns="http://www.w3.org/2000/svg" viewBox="0 0 32 32"><title>suu</title><g id="ikonit"><path d="M25,10.94a6.37,6.37,0,0,0-4.54-2.19c-2.53,0-3,.95-4.44.95s-1.91-.95-4.14-.95A6.53,6.53,0,0,0,7,10.94c-1.28,1.28-5,5.12-5,5.12a17,17,0,0,0,28,0S26.26,12.22,25,10.94ZM8.36,12.29a4.53,4.53,0,0,1,3.49-1.63c1.91,0,2.23.95,4.14.95s2.23-.94,4.13-.95a4.51,4.51,0,0,1,3.5,1.63c1,1,.95.94,3.05,2.92a8.47,8.47,0,0,1-3-.57,7.19,7.19,0,0,0-2.39-.49,6,6,0,0,0-3.28.95,3.66,3.66,0,0,1-2.06.65,3.72,3.72,0,0,1-2.05-.64,5.92,5.92,0,0,0-3.29-1,7.19,7.19,0,0,0-2.39.49,8.73,8.73,0,0,1-2.95.56C7.4,13.23,7.39,13.26,8.36,12.29ZM16,21.47A14.53,14.53,0,0,1,5.57,17.11a10.63,10.63,0,0,0,3.29-.66,5.4,5.4,0,0,1,1.79-.39,4.17,4.17,0,0,1,2.35.7,5.48,5.48,0,0,0,6,0,4.16,4.16,0,0,1,2.34-.7,5.72,5.72,0,0,1,1.79.39,10.56,10.56,0,0,0,3.28.66A14.53,14.53,0,0,1,16,21.47Z"/></g></svg>