<svg xmlns="http://www.w3.org/2000/svg" viewBox="0 0 32 32"><title>sydan</title><g id="ikonit"><path d="M27.71,5.87a7.8,7.8,0,0,0-5.55-2.3A7.22,7.22,0,0,0,16,6.71,7.2,7.2,0,0,0,9.84,3.57h0A7.84,7.84,0,0,0,4.29,17c1.61,1.62,3.09,2.92,4.52,4.17a58.57,58.57,0,0,1,5.9,5.75c.23.27,1.09,1.38,1.1,1.39l.19.24.19-.24s.87-1.12,1.1-1.39a58.57,58.57,0,0,1,5.9-5.75c1.43-1.25,2.91-2.55,4.52-4.17a7.85,7.85,0,0,0,0-11.08Zm-1.49,9.59c-1.57,1.57-3,2.85-4.42,4.08a62.75,62.75,0,0,0-5.8,5.6,62.75,62.75,0,0,0-5.8-5.6C8.8,18.31,7.35,17,5.78,15.47A5.74,5.74,0,0,1,9.84,5.68c4.06,0,5.42,3.51,6.16,4.83.75-1.32,2.1-4.83,6.16-4.83a5.73,5.73,0,0,1,4.06,9.78Z"/></g></svg>