<?xml version="1.0" encoding="UTF-8"?>
<svg width="22px" height="602px" viewBox="0 0 22 602" version="1.1" xmlns="http://www.w3.org/2000/svg" xmlns:xlink="http://www.w3.org/1999/xlink">
    <!-- Generator: Sketch 52.4 (67378) - http://www.bohemiancoding.com/sketch -->
    <title>koro_yellow</title>
    <desc>Created with Sketch.</desc>
    <g id="Page-1" stroke="none" stroke-width="1" fill="none" fill-rule="evenodd">
        <g id="koro_yellow" fill="#0000BF">
            <g id="Group-13" transform="translate(11.000000, 301.000000) rotate(-90.000000) translate(-11.000000, -301.000000) translate(-290.000000, 290.000000)">
                <g id="wave">
                    <path d="M150.9,1.9 C113.3,1.9 113.3,21.4 75.8,21.4 C38.3,21.4 38.2,1.9 0.7,1.9 L0.7,0 L151,0 L301.3,0 L451.6,0 L601.9,0 L601.9,1.9 C564.3,1.9 564.3,21.4 526.8,21.4 C489.2,21.4 489.2,1.9 451.7,1.9 C414.2,1.9 414.1,21.4 376.6,21.4 C339.1,21.4 339,1.9 301.5,1.9 C264,1.9 263.9,21.4 226.4,21.4 C188.9,21.4 188.5,1.9 150.9,1.9 Z" id="Combined-Shape"></path>
                </g>
            </g>
        </g>
    </g>
</svg>