<svg id="Layer_1" data-name="Layer 1" xmlns="http://www.w3.org/2000/svg" xmlns:xlink="http://www.w3.org/1999/xlink" viewBox="0 0 703.81 112.28"><defs><style>.cls-1{fill:none;}.cls-2{clip-path:url(#clip-path);}.cls-3{fill:#00151d;}</style><clipPath id="clip-path" transform="translate(-29.09 -21.54)"><rect class="cls-1" width="761" height="155.34"/></clipPath></defs><title>yleisten-kirjastojen-tunnus-sv-fi-en-rinnakkain</title><g class="cls-2"><path class="cls-3" d="M88.83,111.87c-.07-5.89-1.17-7.15-19.43-12.37l1.39,20.83c0,5.55,5.24,7.68,10.6,10.21,5.46,2.31,7.34,3.23,7.43,3.28h0s2-1,7.44-3.28c5.36-2.53,10.6-4.66,10.6-10.21l1.39-20.83C90,104.72,88.9,106,88.83,111.87" transform="translate(-29.09 -21.54)"/><path class="cls-3" d="M88.83,59.56c-.2-18.11-3.6-22-59.74-38l4.27,64c0,16.53,15.13,23.21,31,30.68-5-3.12-8.57-7-8.57-13.18L53.29,65c33.4,9.55,35.42,11.85,35.54,22.63C89,76.82,91,74.52,124.37,65l-2.54,38.09c0,6.19-3.57,10.06-8.57,13.18,15.91-7.47,31-14.15,31-30.68l4.27-64c-56.14,16-59.54,19.91-59.74,38" transform="translate(-29.09 -21.54)"/><polygon class="cls-3" points="571.16 66.6 581.15 66.6 581.15 70.86 565.82 70.86 565.82 43.53 571.16 43.53 571.16 66.6"/><rect class="cls-3" x="585.06" y="43.53" width="5.31" height="27.33"/><path class="cls-3" d="M624.85,92.4V65.07h8.06a10.37,10.37,0,0,1,6.59,1.87,6.7,6.7,0,0,1,2.38,5.6A6.81,6.81,0,0,1,641,76a5.29,5.29,0,0,1-2.59,2.26,4.87,4.87,0,0,1,3.2,2.2,7.51,7.51,0,0,1,1,4,7.6,7.6,0,0,1-2.25,6q-2.24,2-6.43,2Zm5.35-15.79h2.95a3.41,3.41,0,0,0,2.5-1,3.61,3.61,0,0,0,.88-2.62,3.83,3.83,0,0,0-.9-2.82,3.74,3.74,0,0,0-2.72-.89H630.2Zm0,3.74v7.79H634a3.24,3.24,0,0,0,2.53-.94,4.09,4.09,0,0,0,.84-2.8,5.28,5.28,0,0,0-.72-3,2.56,2.56,0,0,0-2.29-1.05Z" transform="translate(-29.09 -21.54)"/><path class="cls-3" d="M652.49,81.53V92.4h-5.34V65.09h8.92a9,9,0,0,1,6.34,2.13,7.68,7.68,0,0,1,2.3,5.92,6.88,6.88,0,0,1-1,3.69,6.69,6.69,0,0,1-2.8,2.46,5.26,5.26,0,0,1,3,2.37,8.33,8.33,0,0,1,.93,4.13v1.93a12.39,12.39,0,0,0,.26,2.41,3.39,3.39,0,0,0,.92,1.87v.4h-5.51a3.08,3.08,0,0,1-.83-2,22.73,22.73,0,0,1-.17-2.76V85.83a5.27,5.27,0,0,0-.83-3.17,2.79,2.79,0,0,0-2.4-1.13Zm0-4.26h3.56a3,3,0,0,0,2.48-1,4.27,4.27,0,0,0,.85-2.83,4.85,4.85,0,0,0-.85-3,2.91,2.91,0,0,0-2.46-1.1h-3.58Z" transform="translate(-29.09 -21.54)"/><path class="cls-3" d="M682.2,86.56H675l-1.46,5.84h-5.39l7.7-27.33h5.55l7.68,27.33h-5.38Zm-6.12-4.26h5l-2.46-9.67h-.11Z" transform="translate(-29.09 -21.54)"/><path class="cls-3" d="M697.5,81.53V92.4h-5.33V65.09h8.92a9,9,0,0,1,6.33,2.13,7.64,7.64,0,0,1,2.3,5.92,7,7,0,0,1-1,3.69,6.69,6.69,0,0,1-2.8,2.46,5.26,5.26,0,0,1,3,2.37,8.33,8.33,0,0,1,.93,4.13v1.93a12.39,12.39,0,0,0,.26,2.41,3.33,3.33,0,0,0,.92,1.87v.4h-5.52a3.08,3.08,0,0,1-.82-2,20.87,20.87,0,0,1-.17-2.76V85.83a5.2,5.2,0,0,0-.84-3.17,2.76,2.76,0,0,0-2.39-1.13Zm0-4.26h3.57a3.06,3.06,0,0,0,2.48-1,4.27,4.27,0,0,0,.84-2.83,4.85,4.85,0,0,0-.84-3,2.94,2.94,0,0,0-2.46-1.1H697.5Z" transform="translate(-29.09 -21.54)"/><polygon class="cls-3" points="693.34 55.24 693.45 55.24 698.01 43.53 703.81 43.53 696 61.13 696 70.86 690.67 70.86 690.67 60.8 683 43.53 688.84 43.53 693.34 55.24"/><polygon class="cls-3" points="365.86 59.5 363.53 59.5 363.53 70.86 358.18 70.86 358.18 43.53 363.53 43.53 363.53 54.64 365.26 54.64 370.59 43.53 377.14 43.53 369.69 56.01 377.76 70.86 371.27 70.86 365.86 59.5"/><rect class="cls-3" x="380.77" y="43.53" width="5.31" height="27.33"/><path class="cls-3" d="M425.91,81.53V92.4h-5.33V65.09h8.92a9,9,0,0,1,6.33,2.13,7.68,7.68,0,0,1,2.3,5.92,6.88,6.88,0,0,1-1,3.69,6.66,6.66,0,0,1-2.79,2.46,5.26,5.26,0,0,1,3,2.37,8.33,8.33,0,0,1,.93,4.13v1.93a11.66,11.66,0,0,0,.26,2.41,3.33,3.33,0,0,0,.92,1.87v.4H434a3.08,3.08,0,0,1-.82-2,20.87,20.87,0,0,1-.17-2.76V85.83a5.2,5.2,0,0,0-.84-3.17,2.76,2.76,0,0,0-2.39-1.13Zm0-4.26h3.57a3.06,3.06,0,0,0,2.48-1,4.27,4.27,0,0,0,.84-2.83,4.85,4.85,0,0,0-.84-3,2.94,2.94,0,0,0-2.46-1.1h-3.59Z" transform="translate(-29.09 -21.54)"/><path class="cls-3" d="M452.38,65.07h5.32v19a8.84,8.84,0,0,1-2.26,6.37,7.58,7.58,0,0,1-5.7,2.36,8.08,8.08,0,0,1-5.88-2.1q-2.17-2.1-2.1-6.2l.06-.11H447a5.18,5.18,0,0,0,.76,3.15,2.35,2.35,0,0,0,2,1,2.24,2.24,0,0,0,1.87-1.18,6,6,0,0,0,.77-3.29Z" transform="translate(-29.09 -21.54)"/><path class="cls-3" d="M474.65,86.56h-7.21L466,92.4h-5.39l7.7-27.33h5.55l7.68,27.33h-5.39Zm-6.12-4.26h5l-2.46-9.67H471Z" transform="translate(-29.09 -21.54)"/><path class="cls-3" d="M496.75,85.26a3.66,3.66,0,0,0-.83-2.52A8.38,8.38,0,0,0,493,80.91a19.21,19.21,0,0,1-6.39-3.37,6.69,6.69,0,0,1-2.13-5.28A6.88,6.88,0,0,1,487,66.78a9.44,9.44,0,0,1,6.32-2.11A8.78,8.78,0,0,1,499.64,67,7.69,7.69,0,0,1,502,73l0,.11h-5.18a4.73,4.73,0,0,0-.93-3,3.65,3.65,0,0,0-5.14-.2,3.48,3.48,0,0,0-.89,2.43,2.84,2.84,0,0,0,1,2.23,14.17,14.17,0,0,0,3.46,1.94,14.68,14.68,0,0,1,5.85,3.33,7.55,7.55,0,0,1,2,5.46,6.89,6.89,0,0,1-2.37,5.55,9.39,9.39,0,0,1-6.29,2,10.52,10.52,0,0,1-6.76-2.28A7.64,7.64,0,0,1,483.89,84l0-.11h5.19a5.09,5.09,0,0,0,1.08,3.64,4.26,4.26,0,0,0,3.22,1.1,3.23,3.23,0,0,0,2.51-.9,3.51,3.51,0,0,0,.82-2.44" transform="translate(-29.09 -21.54)"/><polygon class="cls-3" points="493.37 47.79 487.22 47.79 487.22 70.86 481.88 70.86 481.88 47.79 475.76 47.79 475.76 43.53 493.37 43.53 493.37 47.79"/><path class="cls-3" d="M543.89,82.58a10.37,10.37,0,0,1-2.61,7.51,10.27,10.27,0,0,1-13.88,0,10.44,10.44,0,0,1-2.59-7.51V74.92a10.53,10.53,0,0,1,2.59-7.52,9.08,9.08,0,0,1,6.91-2.73,9.22,9.22,0,0,1,7,2.73,10.42,10.42,0,0,1,2.63,7.52Zm-5.32-7.72a7.48,7.48,0,0,0-1.09-4.43,3.66,3.66,0,0,0-3.17-1.5,3.61,3.61,0,0,0-3.15,1.49,7.7,7.7,0,0,0-1,4.44v7.72A7.58,7.58,0,0,0,531.18,87a4.07,4.07,0,0,0,6.3,0,7.5,7.5,0,0,0,1.09-4.46Z" transform="translate(-29.09 -21.54)"/><path class="cls-3" d="M573.08,78.73a3.68,3.68,0,1,1-3.68-3.68,3.68,3.68,0,0,1,3.68,3.68" transform="translate(-29.09 -21.54)"/><path class="cls-3" d="M171.61,92.4V65.07h8a10.42,10.42,0,0,1,6.6,1.87,6.72,6.72,0,0,1,2.37,5.6,6.91,6.91,0,0,1-.86,3.46,5.33,5.33,0,0,1-2.59,2.26,4.85,4.85,0,0,1,3.19,2.2,7.42,7.42,0,0,1,1,4,7.63,7.63,0,0,1-2.24,6,9.29,9.29,0,0,1-6.43,2ZM177,76.61h2.94a3.44,3.44,0,0,0,2.51-1,3.65,3.65,0,0,0,.87-2.62,3.83,3.83,0,0,0-.9-2.82,3.74,3.74,0,0,0-2.72-.89H177Zm0,3.74v7.79h3.77a3.22,3.22,0,0,0,2.52-.94,4.09,4.09,0,0,0,.84-2.8,5.28,5.28,0,0,0-.72-3,2.55,2.55,0,0,0-2.28-1.05Z" transform="translate(-29.09 -21.54)"/><rect class="cls-3" x="165.08" y="43.53" width="5.31" height="27.33"/><path class="cls-3" d="M204.87,92.4V65.07h8a10.39,10.39,0,0,1,6.6,1.87,6.73,6.73,0,0,1,2.38,5.6A6.81,6.81,0,0,1,221,76a5.29,5.29,0,0,1-2.59,2.26,4.82,4.82,0,0,1,3.19,2.2,7.42,7.42,0,0,1,1,4,7.6,7.6,0,0,1-2.25,6,9.27,9.27,0,0,1-6.43,2Zm5.35-15.79h2.95a3.41,3.41,0,0,0,2.5-1,3.61,3.61,0,0,0,.88-2.62,3.83,3.83,0,0,0-.9-2.82,3.75,3.75,0,0,0-2.73-.89h-2.7Zm0,3.74v7.79H214a3.24,3.24,0,0,0,2.53-.94,4.09,4.09,0,0,0,.83-2.8,5.28,5.28,0,0,0-.71-3,2.58,2.58,0,0,0-2.29-1.05Z" transform="translate(-29.09 -21.54)"/><polygon class="cls-3" points="203.41 66.6 213.4 66.6 213.4 70.86 198.06 70.86 198.06 43.53 203.41 43.53 203.41 66.6"/><rect class="cls-3" x="217.31" y="43.53" width="5.31" height="27.33"/><path class="cls-3" d="M275.52,82.58a10.37,10.37,0,0,1-2.61,7.51,9.23,9.23,0,0,1-7,2.7,9.13,9.13,0,0,1-6.92-2.7c-1.73-1.8-2.59-4.31-2.59-7.51V74.92A10.49,10.49,0,0,1,259,67.4a9,9,0,0,1,6.9-2.73,9.2,9.2,0,0,1,6.95,2.73,10.42,10.42,0,0,1,2.63,7.52Zm-5.32-7.72a7.48,7.48,0,0,0-1.09-4.43,3.66,3.66,0,0,0-3.17-1.5,3.61,3.61,0,0,0-3.15,1.49,7.7,7.7,0,0,0-1.05,4.44v7.72A7.66,7.66,0,0,0,262.81,87a4.07,4.07,0,0,0,6.3,0,7.5,7.5,0,0,0,1.09-4.46Z" transform="translate(-29.09 -21.54)"/><polygon class="cls-3" points="266.44 47.79 260.28 47.79 260.28 70.86 254.95 70.86 254.95 47.79 248.83 47.79 248.83 43.53 266.44 43.53 266.44 47.79"/><polygon class="cls-3" points="284.5 58.86 275.32 58.86 275.32 66.6 286.11 66.6 286.11 70.86 269.97 70.86 269.97 43.53 286.07 43.53 286.07 47.79 275.32 47.79 275.32 54.6 284.5 54.6 284.5 58.86"/><polygon class="cls-3" points="297.53 59.5 295.2 59.5 295.2 70.86 289.85 70.86 289.85 43.53 295.2 43.53 295.2 54.64 296.92 54.64 302.26 43.53 308.81 43.53 301.35 56.01 309.43 70.86 302.93 70.86 297.53 59.5"/><path class="cls-3" d="M365.44,78.73a3.68,3.68,0,1,1-3.68-3.68,3.68,3.68,0,0,1,3.68,3.68" transform="translate(-29.09 -21.54)"/></g></svg>