<?xml version="1.0" encoding="UTF-8"?>
<svg width="126px" height="21px" viewBox="0 0 126 21" version="1.1" xmlns="http://www.w3.org/2000/svg" xmlns:xlink="http://www.w3.org/1999/xlink">
    <!-- Generator: Sketch 51.3 (57544) - http://www.bohemiancoding.com/sketch -->
    <title>Helmet_logo_mustavalkoinen</title>
    <desc>Created with Sketch.</desc>
    <defs></defs>
    <g id="Symbols" stroke="none" stroke-width="1" fill="none" fill-rule="evenodd">
        <g id="Component/.b-footer" transform="translate(-952.000000, -162.000000)" fill="#323232" fill-rule="nonzero">
            <g id="Helmet_logo_mustavalkoinen" transform="translate(952.000000, 162.000000)">
                <path d="M0,1.54311636 C0,1.25719993 0.261538462,1 0.55133995,1 L3.24476427,1 C3.56325062,1 3.79483871,1.25719993 3.79483871,1.54311636 L3.79483871,9.11428334 L13.2355335,9.11428334 L13.2355335,1.54311636 C13.2355335,1.25719993 13.4671216,1 13.7847643,1 L16.4507692,1 C16.7388834,1 17,1.25719993 17,1.54311636 L17,20.4560513 C17,20.7423839 16.7384615,21 16.4507692,21 L13.7847643,21 C13.4671216,21 13.2355335,20.7423839 13.2355335,20.4560513 L13.2355335,12.5706676 L3.79483871,12.5706676 L3.79483871,20.4560513 C3.79483871,20.7423839 3.56325062,21 3.24476427,21 L0.55133995,21 C0.261538462,21 0,20.7423839 0,20.4564675 L0,1.54311636 Z" id="Shape"></path>
                <path d="M26,1.54310506 C26,1.25719458 26.2340349,1 26.556152,1 L38.443848,1 C38.7651141,1 39,1.25719458 39,1.54310506 L39,3.88615602 C39,4.17165033 38.7655396,4.42884491 38.443848,4.42884491 L29.7985991,4.42884491 L29.7985991,9.11453066 L37.0124055,9.11453066 C37.3047363,9.11453066 37.5685575,9.37130907 37.5685575,9.65721955 L37.5685575,12.0285702 C37.5685575,12.3431966 37.3047363,12.570843 37.0124055,12.570843 L29.7985991,12.570843 L29.7985991,17.5707389 L38.443848,17.5707389 C38.7651141,17.5707389 39,17.8287658 39,18.113844 L39,20.4560626 C39,20.7423892 38.7655396,21 38.443848,21 L26.556152,21 C26.2340349,21 26,20.7423892 26,20.4560626 L26,1.54310506 Z" id="Shape"></path>
                <path d="M46,1.54310506 C46,1.25719458 46.2375252,1 46.5654745,1 L49.2976637,1 C49.5948947,1 49.8622729,1.25719458 49.8622729,1.54310506 L49.8622729,17.5707389 L57.4358235,17.5707389 C57.7624748,17.5707389 58,17.8287658 58,18.113844 L58,20.4560626 C58,20.7423892 57.7624748,21 57.4358235,21 L46.5654745,21 C46.2379579,21 46,20.7423892 46,20.4560626 L46,1.54310506 Z" id="Shape"></path>
                <path d="M67.3513126,0.437207891 C67.3791457,0.204370258 67.5481907,1.50949898e-15 67.8584478,1.50949898e-15 L68.3082795,1.50949898e-15 C68.5313535,1.50949898e-15 68.7003986,0.116843703 68.7851258,0.291896813 L74.967345,14.0594841 C75.0234205,14.0594841 75.0234205,14.0594841 75.0512536,14.0594841 L81.2330635,0.291896813 C81.3169721,0.116843703 81.4577747,0 81.7103191,0 L82.1597415,0 C82.4691799,0 82.638225,0.204370258 82.6656488,0.437207891 L85.9826975,20.0384825 C86.0657875,20.4467982 85.8418949,20.7098027 85.4767903,20.7098027 L82.9198303,20.7098027 C82.6660581,20.7098027 82.4413468,20.4765402 82.3844527,20.27217 L80.7263377,9.21705615 C80.7001418,9.21705615 80.6428384,9.21705615 80.6428384,9.21705615 L75.7249779,20.6809105 C75.6689025,20.8538392 75.500676,21 75.2473131,21 L74.7422245,21 C74.4896802,21 74.3484682,20.8538392 74.2645596,20.6809105 L69.2914423,9.21705615 C69.2914423,9.21705615 69.2349575,9.21705615 69.2067151,9.21705615 L67.5780704,20.27217 C67.5490094,20.4765402 67.3238888,20.7098027 67.0721631,20.7098027 L64.5426269,20.7098027 C64.1758851,20.7098027 63.9528111,20.4467982 64.0084773,20.0384825 L67.3513126,0.437207891 Z" id="Shape"></path>
                <path d="M94,1.54310506 C94,1.25719458 94.2336017,1 94.5557083,1 L106.443441,1 C106.765122,1 107,1.25719458 107,1.54310506 L107,3.88615602 C107,4.17165033 106.765122,4.42884491 106.443441,4.42884491 L97.7967727,4.42884491 L97.7967727,9.11453066 L105.012045,9.11453066 C105.304792,9.11453066 105.568604,9.37130907 105.568604,9.65721955 L105.568604,12.0285702 C105.568604,12.3431966 105.304792,12.570843 105.012045,12.570843 L97.7967727,12.570843 L97.7967727,17.5707389 L106.443441,17.5707389 C106.765122,17.5707389 107,17.8287658 107,18.113844 L107,20.4560626 C107,20.7423892 106.765122,21 106.443441,21 L94.5557083,21 C94.2336017,21 94,20.7423892 94,20.4560626 L94,1.54310506 Z" id="Shape"></path>
                <path d="M117.069639,4.42884491 L112.56024,4.42884491 C112.235687,4.42884491 112,4.17165033 112,3.88615602 L112,1.54310506 C112,1.25719458 112.235687,1 112.56024,1 L125.43976,1 C125.763025,1 126,1.25719458 126,1.54310506 L126,3.88615602 C126,4.17165033 125.763025,4.42884491 125.43976,4.42884491 L120.929932,4.42884491 L120.929932,20.4560626 C120.929932,20.7423892 120.665052,21 120.369691,21 L117.628592,21 C117.335378,21 117.06921,20.7423892 117.06921,20.4560626 L117.06921,4.42884491 L117.069639,4.42884491 Z" id="Shape"></path>
            </g>
        </g>
    </g>
</svg>