<?xml version="1.0" encoding="UTF-8"?>
<svg width="15px" height="20px" viewBox="0 0 15 20" version="1.1" xmlns="http://www.w3.org/2000/svg" xmlns:xlink="http://www.w3.org/1999/xlink">
    <!-- Generator: Sketch 48.2 (47327) - http://www.bohemiancoding.com/sketch -->
    <title>Group 18</title>
    <desc>Created with Sketch.</desc>
    <defs>
        <polygon id="path-1" points="9.59254738e-05 0.246645161 14.3309677 0.246645161 14.3309677 19.3543871 9.59254738e-05 19.3543871"></polygon>
    </defs>
    <g id="Go-Mad-Copy" stroke="none" stroke-width="1" fill="none" fill-rule="evenodd" transform="translate(-772.000000, -1389.000000)">
        <g id="Group-15" transform="translate(468.000000, 1033.000000)">
            <g id="Group-6" transform="translate(20.000000, 356.000000)">
                <g id="Group-4" transform="translate(284.000000, 0.000000)">
                    <g id="Group-18">
                        <g id="Page-1">
                            <path d="M7.16574194,4.94419355 C5.58251613,4.94419355 4.29929032,6.22741935 4.29929032,7.81064516 C4.29929032,9.39322581 5.58251613,10.6770968 7.16574194,10.6770968 C8.74896774,10.6770968 10.0315484,9.39322581 10.0315484,7.81064516 C10.0315484,6.22741935 8.74896774,4.94419355 7.16574194,4.94419355 M7.16574194,9.24354839 C6.37477419,9.24354839 5.73219355,8.60032258 5.73219355,7.81064516 C5.73219355,7.02096774 6.37477419,6.37774194 7.16574194,6.37774194 C7.95606452,6.37774194 8.59864516,7.02096774 8.59864516,7.81064516 C8.59864516,8.60032258 7.95606452,9.24354839 7.16574194,9.24354839" id="Fill-1" fill="#000000"></path>
                            <g id="Group-5" transform="translate(0.000000, 0.398710)">
                                <mask id="mask-2" fill="white">
                                    <use xlink:href="#path-1"></use>
                                </mask>
                                <g id="Clip-4"></g>
                                <path d="M12.2829032,2.34535484 C10.87,0.946 9.01709677,0.246645161 7.16483871,0.246645161 C5.31387097,0.246645161 3.4616129,0.946 2.04870968,2.34535484 C-0.777741935,5.14341935 -0.586129032,9.50341935 2.04870968,12.4789032 C4.75322581,15.5337419 6.20032258,17.4395484 7.16483871,19.3543871 C8.13580645,17.4395484 9.57774194,15.5337419 12.2829032,12.4789032 C14.9177419,9.50341935 15.1087097,5.14341935 12.2829032,2.34535484 M11.21,11.5285806 C9.35516129,13.6227742 8.09709677,15.1769677 7.16612903,16.549871 C6.23903226,15.1808387 4.97903226,13.626 3.1216129,11.5285806 C2.05322581,10.3214839 1.45387097,8.82987097 1.43387097,7.32664516 C1.41387097,5.80470968 1.97451613,4.4343871 3.05709677,3.36341935 C4.15322581,2.2776129 5.61258065,1.67954839 7.16483871,1.67954839 C8.7183871,1.67954839 10.1777419,2.2776129 11.2745161,3.36341935 C12.3564516,4.4343871 12.9170968,5.80470968 12.8977419,7.32664516 C12.8777419,8.82987097 12.2783871,10.3214839 11.21,11.5285806" id="Fill-3" fill="#000000" mask="url(#mask-2)"></path>
                            </g>
                        </g>
                    </g>
                </g>
            </g>
        </g>
    </g>
</svg>