<?xml version="1.0" encoding="utf-8"?>
<!-- Generator: Adobe Illustrator 19.0.1, SVG Export Plug-In . SVG Version: 6.00 Build 0)  -->
<!DOCTYPE svg PUBLIC "-//W3C//DTD SVG 1.1//EN" "http://www.w3.org/Graphics/SVG/1.1/DTD/svg11.dtd" [
	<!ENTITY ns_extend "http://ns.adobe.com/Extensibility/1.0/">
	<!ENTITY ns_ai "http://ns.adobe.com/AdobeIllustrator/10.0/">
	<!ENTITY ns_graphs "http://ns.adobe.com/Graphs/1.0/">
	<!ENTITY ns_vars "http://ns.adobe.com/Variables/1.0/">
	<!ENTITY ns_imrep "http://ns.adobe.com/ImageReplacement/1.0/">
	<!ENTITY ns_sfw "http://ns.adobe.com/SaveForWeb/1.0/">
	<!ENTITY ns_custom "http://ns.adobe.com/GenericCustomNamespace/1.0/">
	<!ENTITY ns_adobe_xpath "http://ns.adobe.com/XPath/1.0/">
]>
<svg version="1.1" id="Layer_1" xmlns:x="&ns_extend;" xmlns:i="&ns_ai;" xmlns:graph="&ns_graphs;"
	 xmlns="http://www.w3.org/2000/svg" xmlns:xlink="http://www.w3.org/1999/xlink" x="0px" y="0px" viewBox="694.7 157.2 613.9 52.7"
	 style="enable-background:new 694.7 157.2 613.9 52.7;" xml:space="preserve">
<metadata>
	<sfw  xmlns="&ns_sfw;">
		<slices></slices>
		<sliceSourceBounds  height="52.7" width="613.9" bottomLeftOrigin="true" x="419.7" y="451.1"></sliceSourceBounds>
	</sfw>
</metadata>
<g>
	<path d="M1308.6,183.9c0-8.9-5.4-14.9-13.3-14.9c-7.9,0-13.3,6-13.3,14.9s5.5,14.9,13.3,14.9
		C1303.2,198.8,1308.6,192.8,1308.6,183.9L1308.6,183.9z M1302.4,183.9c0,5.5-2.3,9.9-7,9.9c-4.8,0-7-4.4-7-9.9s2.3-9.9,7-9.9
		C1300.1,174,1302.4,178.4,1302.4,183.9L1302.4,183.9z M1273.7,190.4v-15.6h7v-5h-7V160l-6.1,3.7v6.2h-4.9v5h4.9v16.2
		c0,5.9,3.1,7.9,7.3,7.9c3.1,0,5.5-1.6,6.4-2.7l-2.8-4.7c-0.4,1-1.2,2.3-2.7,2.3C1274.5,193.6,1273.7,192.8,1273.7,190.4
		L1273.7,190.4z M1243.6,177.1c0-2.2,2.2-3.3,4.6-3.3c3.8,0,6.3,2.6,6.9,5.5l5.5-3.2c-2-4.2-7.1-7-12.7-7c-5.4,0-10.4,3.2-10.4,8.4
		c0,5.4,5.5,7.4,9.8,8.5c3.8,1.1,7.3,1.7,7.3,4.6c0,2.4-2.2,3.6-4.8,3.6c-4.7,0-7.3-3.1-8-6.6l-5.6,3.2c1.9,5,6.8,8.1,13.8,8.1
		c5.6,0,10.7-3.3,10.7-8.7c0-5.3-4.1-7.2-8.8-8.6C1247.9,180.2,1243.6,179.8,1243.6,177.1L1243.6,177.1z M1228.7,198.1h4.9
		c-0.5-1.8-0.7-3.5-0.7-6.6v-12.3c0-7.1-5-10.3-11.1-10.3c-6.2,0-11,3.6-12.8,8.5l5.6,3.2c0.7-3.7,3-6.6,7.1-6.6
		c2.9,0,5.1,1.6,5.1,4.1c0,2.2-2.3,2.7-6.4,3.6c-4.7,1-10.6,2.6-10.6,8.8c0,5.3,3.8,8.4,9,8.4c4.5,0,7.2-2.5,8.4-4.4h0.2
		C1227.5,195.8,1227.8,196.7,1228.7,198.1L1228.7,198.1z M1227,187.2c0,4.2-3.2,6.6-6.7,6.6c-2.9,0-4.5-1.5-4.5-3.7
		c0-2.8,3-3.6,5.9-4.2c2.6-0.6,4.4-1.3,5.3-2.5V187.2L1227,187.2z M1205.7,161.7c0-2.2-1.7-3.8-3.9-3.8c-2.3,0-4,1.6-4,3.8
		c0,2.3,1.7,3.8,4,3.8C1204,165.6,1205.7,164,1205.7,161.7L1205.7,161.7z M1198.6,196.3c0,6.1-1.5,8.3-7.2,9.4l5.7,4.2
		c5.5-1.4,7.8-5.6,7.8-12.4v-27.8h-6.3V196.3L1198.6,196.3z M1195.2,179.7c0,0,0.3-1.4,0.3-3.1c0-4.1-2.4-7.5-6.4-7.5
		c-3.5,0-5.8,2.4-7.1,5.4h-0.1l0.3-4.9h-6.2v28.5h6.3v-16.3c0-4.1,1.4-7.3,4.5-7.3c2.3,0,3.2,1.9,3.2,4.1c0,1.9-0.4,4.1-0.5,4.5
		L1195.2,179.7L1195.2,179.7z M1170.3,169.7h-6.3v28.4h6.3V169.7L1170.3,169.7z M1171,161.7c0-2.2-1.7-3.8-3.9-3.8
		c-2.3,0-4,1.6-4,3.8c0,2.3,1.7,3.8,4,3.8C1169.3,165.6,1171,164,1171,161.7L1171,161.7z M1161.6,198.1l-10.9-17.2l9.7-11.2h-7.4
		l-7.4,9.2c-1.8,2.2-3.8,5.4-3.8,5.4h-0.1c0,0,0.3-3.6,0.3-7.1v-19.9h-6.3v40.8h6.3v-7l4.6-5.6l8,12.7h7V198.1z M1126,198.1h4.9
		c-0.5-1.8-0.7-3.5-0.7-6.6v-12.3c0-7.1-5-10.3-11.1-10.3c-6.2,0-11,3.6-12.8,8.5l5.6,3.2c0.7-3.7,3-6.6,7.1-6.6
		c2.9,0,5.1,1.6,5.1,4.1c0,2.2-2.3,2.7-6.4,3.6c-4.7,1-10.6,2.6-10.6,8.8c0,5.3,3.8,8.4,9,8.4c4.5,0,7.2-2.5,8.4-4.4h0.2
		C1124.8,195.8,1125.1,196.7,1126,198.1L1126,198.1z M1124.3,187.2c0,4.2-3.2,6.6-6.7,6.6c-2.9,0-4.5-1.5-4.5-3.7
		c0-2.8,3-3.6,5.9-4.2c2.6-0.6,4.4-1.3,5.3-2.5V187.2L1124.3,187.2z M1097.4,190.4v-15.6h6.9v-5h-6.9V160l-6.1,3.7v6.2h-4.9v5h4.9
		v16.2c0,5.9,3.1,7.9,7.3,7.9c3.1,0,5.5-1.6,6.4-2.7l-2.8-4.7c-0.4,1-1.2,2.3-2.7,2.3C1098.2,193.6,1097.4,192.8,1097.4,190.4
		L1097.4,190.4z M1067.3,177.1c0-2.2,2.2-3.3,4.6-3.3c3.8,0,6.3,2.6,6.9,5.5l5.5-3.2c-2-4.2-7.1-7-12.7-7c-5.4,0-10.4,3.2-10.4,8.4
		c0,5.4,5.5,7.4,9.8,8.5c3.8,1.1,7.3,1.7,7.3,4.6c0,2.4-2.2,3.6-4.8,3.6c-4.7,0-7.3-3.1-8-6.6l-5.6,3.2c1.9,5,6.8,8.1,13.8,8.1
		c5.6,0,10.7-3.3,10.7-8.7c0-5.3-4.1-7.2-8.8-8.6C1071.6,180.2,1067.3,179.8,1067.3,177.1L1067.3,177.1z M1050,198.1h6.3v-28.5h-6.3
		v16.5c0,4.1-2.1,7.3-6,7.3c-3.6,0-5.1-2.1-5.1-6.9v-16.8h-6.3v18c0,7.3,3.4,11.1,9.2,11.1c4.8,0,7.2-3,8.5-5.5h0.2L1050,198.1
		L1050,198.1z M1030.9,198.1l-10.9-17.2l9.7-11.2h-7.4l-7.4,9.2c-1.8,2.2-3.8,5.4-3.8,5.4h-0.1c0,0,0.3-3.6,0.3-7.1v-19.9h-6.3v40.8
		h6.3v-7l4.6-5.6l8,12.7h7V198.1z M983.8,177.1c0-2.2,2.2-3.3,4.6-3.3c3.8,0,6.3,2.6,6.9,5.5l5.5-3.2c-2-4.2-7.1-7-12.7-7
		c-5.4,0-10.4,3.2-10.4,8.4c0,5.4,5.5,7.4,9.8,8.5c3.8,1.1,7.3,1.7,7.3,4.6c0,2.4-2.2,3.6-4.8,3.6c-4.7,0-7.3-3.1-8-6.6l-5.6,3.2
		c1.9,5,6.8,8.1,13.8,8.1c5.7,0,10.7-3.3,10.7-8.7c0-5.3-4.1-7.2-8.8-8.6C988,180.2,983.8,179.8,983.8,177.1L983.8,177.1z
		 M973.6,185.5c0,0,0.4-1.4,0.4-3.5c0-7.6-4.8-13-12.3-13c-7.7,0-13.3,6-13.3,14.9c0,9,5.3,14.9,13.4,14.9c5.9,0,10.2-3.5,11.9-7.3
		l-5.5-3.2c-0.5,3.2-2.8,5.6-6.4,5.6c-4.3,0-7.1-3.4-7.4-8.4H973.6L973.6,185.5z M968,181h-13.4c0.7-4.3,3.3-7.2,7.1-7.2
		C965.6,173.8,968,177.1,968,181L968,181z M938.2,180.9l9.7-11.2h-7.4l-7.4,9.2c-1.8,2.2-3.8,5.4-3.8,5.4h-0.1c0,0,0.3-3.6,0.3-7.1
		v-19.9h-6.3v40.8h6.3v-7l4.6-5.6l8,12.7h6.9L938.2,180.9L938.2,180.9z M899.3,198.1h6.3v-18c0-7.3-3.6-11.1-9.3-11.1
		c-4.9,0-7.5,3-8.7,5.5h-0.1l0.3-4.9h-6.3v28.5h6.3v-16.7c0-4,2.3-7,6.2-7c3.6,0,5.4,2.1,5.4,6.9v16.8H899.3z M876.5,161.7
		c0-2.2-1.7-3.8-3.9-3.8c-2.3,0-4,1.6-4,3.8c0,2.3,1.7,3.8,4,3.8C874.8,165.6,876.5,164,876.5,161.7L876.5,161.7z M869.5,198.1h6.3
		v-28.5h-6.3V198.1L869.5,198.1z M845,191.3c0-1.8,3.1-3,6.4-3c6.2,0,11.4-3.7,11.4-9.4c0-3.2-1.9-5.2-3.2-6.4v-0.1
		c0.6,0.2,1.7,0.4,2.5,0.4c3,0,4.6-1.5,4.6-5.1l-6.2-3.5c0.1,0.8,0.3,1.6,0.3,2.5c0,1.8-0.8,3-3.2,3c-2.3,0-3.7-0.7-6.4-0.7
		c-6.2,0-11.2,3.6-11.2,9.5c0,4,2.3,6.6,5.5,8v0.2c-3.3,0.7-6.3,2.4-6.3,5.5c0,2.4,1.8,3.7,3.9,4.4v0.2c-2.9,0.5-6,2.5-6,5.6
		c0,5.3,7.1,7.5,14.5,7.5c7.9,0,15.2-2.5,15.2-9.3c0-5.3-4.2-7.8-9.8-7.8c-3.1,0-5.7,0.5-8.2,0.5C846.1,193.1,845,192.5,845,191.3
		L845,191.3z M845.9,178.7c0-3.2,2.5-5.2,5.6-5.2s5.6,2,5.6,5.2s-2.5,5.1-5.6,5.1S845.9,181.9,845.9,178.7L845.9,178.7z
		 M854.4,197.9c3.6,0,6.5,0.8,6.5,3.1c0,3.1-4.1,4.4-9.3,4.4c-4.8,0-8.9-1.1-8.9-3.6C842.7,198.4,850.3,197.9,854.4,197.9
		L854.4,197.9z M828.8,198.1h6.3v-18c0-7.3-3.6-11.1-9.3-11.1c-4.9,0-7.5,3-8.7,5.5H817l0.3-4.9H811v28.5h6.3v-16.7c0-4,2.3-7,6.2-7
		c3.6,0,5.4,2.1,5.4,6.9v16.8H828.8z M805.4,169.7H799v28.4h6.3v-28.4H805.4z M806.1,161.7c0-2.2-1.7-3.8-3.9-3.8
		c-2.3,0-4,1.6-4,3.8c0,2.3,1.7,3.8,4,3.8C804.4,165.6,806.1,164,806.1,161.7L806.1,161.7z M777.9,177.1c0-2.2,2.2-3.3,4.6-3.3
		c3.8,0,6.3,2.6,6.9,5.5l5.5-3.2c-2-4.2-7.1-7-12.7-7c-5.4,0-10.4,3.2-10.4,8.4c0,5.4,5.5,7.4,9.8,8.5c3.8,1.1,7.3,1.7,7.3,4.6
		c0,2.4-2.2,3.6-4.8,3.6c-4.7,0-7.3-3.1-8-6.6l-5.7,3.2c1.9,5,6.8,8.1,13.8,8.1c5.6,0,10.7-3.3,10.7-8.7c0-5.3-4.1-7.2-8.8-8.6
		C782.1,180.2,777.9,179.8,777.9,177.1L777.9,177.1z M760.5,198.1h6.3v-40.9h-6.3V198.1L760.5,198.1z M755.8,185.5
		c0,0,0.4-1.4,0.4-3.5c0-7.6-4.8-13-12.3-13c-7.7,0-13.3,6-13.3,14.9c0,9,5.3,14.9,13.4,14.9c5.9,0,10.2-3.5,11.9-7.3l-5.5-3.2
		c-0.5,3.2-2.8,5.6-6.4,5.6c-4.3,0-7.1-3.4-7.4-8.4H755.8L755.8,185.5z M750.2,181h-13.4c0.7-4.3,3.3-7.2,7.1-7.2
		C747.8,173.8,750.2,177.1,750.2,181L750.2,181z M719.2,198.1h6.5v-39h-6.5v16.2h-17.9v-16.2h-6.6v39h6.6V181h17.9V198.1
		L719.2,198.1z"/>
</g>
</svg>
