<?xml version="1.0" encoding="utf-8"?>
<!-- Generator: Adobe Illustrator 19.0.1, SVG Export Plug-In . SVG Version: 6.00 Build 0)  -->
<!DOCTYPE svg PUBLIC "-//W3C//DTD SVG 1.1//EN" "http://www.w3.org/Graphics/SVG/1.1/DTD/svg11.dtd" [
	<!ENTITY ns_extend "http://ns.adobe.com/Extensibility/1.0/">
	<!ENTITY ns_ai "http://ns.adobe.com/AdobeIllustrator/10.0/">
	<!ENTITY ns_graphs "http://ns.adobe.com/Graphs/1.0/">
	<!ENTITY ns_vars "http://ns.adobe.com/Variables/1.0/">
	<!ENTITY ns_imrep "http://ns.adobe.com/ImageReplacement/1.0/">
	<!ENTITY ns_sfw "http://ns.adobe.com/SaveForWeb/1.0/">
	<!ENTITY ns_custom "http://ns.adobe.com/GenericCustomNamespace/1.0/">
	<!ENTITY ns_adobe_xpath "http://ns.adobe.com/XPath/1.0/">
]>
<svg version="1.1" id="Layer_1" xmlns:x="&ns_extend;" xmlns:i="&ns_ai;" xmlns:graph="&ns_graphs;"
	 xmlns="http://www.w3.org/2000/svg" xmlns:xlink="http://www.w3.org/1999/xlink" x="0px" y="0px" viewBox="694.7 290.8 554.3 52.6"
	 style="enable-background:new 694.7 290.8 554.3 52.6;" xml:space="preserve">
<metadata>
	<sfw  xmlns="&ns_sfw;">
		<slices></slices>
		<sliceSourceBounds  height="52.6" width="554.3" bottomLeftOrigin="true" x="419.7" y="317.6"></sliceSourceBounds>
	</sfw>
</metadata>
<g>
	<path d="M868.1,295.2c0,2.3,1.7,3.8,4,3.8c2.2,0,3.9-1.6,3.9-3.8c0-2.2-1.7-3.8-3.9-3.8C869.8,291.5,868.1,293,868.1,295.2
		L868.1,295.2z M828.8,331.7h6.3v-18c0-7.3-3.6-11.1-9.3-11.1c-4.9,0-7.5,3-8.7,5.5H817l0.3-4.9H811v28.5h6.3V315c0-4,2.3-7,6.2-7
		c3.6,0,5.4,2.1,5.4,6.9v16.8H828.8z M806.1,295.2c0-2.2-1.7-3.8-3.9-3.8c-2.3,0-4,1.6-4,3.8c0,2.3,1.7,3.8,4,3.8
		C804.4,299.1,806.1,297.5,806.1,295.2L806.1,295.2z M795,323.7c0-5.3-4.1-7.2-8.8-8.6c-4.1-1.3-8.4-1.6-8.4-4.4
		c0-2.2,2.2-3.3,4.6-3.3c3.8,0,6.3,2.6,6.9,5.5l5.5-3.2c-2-4.2-7.1-7-12.7-7c-5.4,0-10.4,3.2-10.4,8.4c0,5.4,5.5,7.4,9.8,8.5
		c3.8,1.1,7.3,1.7,7.3,4.6c0,2.4-2.2,3.6-4.8,3.6c-4.7,0-7.3-3.1-8-6.6l-5.7,3.2c1.9,5,6.8,8.1,13.8,8.1
		C789.9,332.4,795,329.1,795,323.7L795,323.7z M760.5,331.7h6.3v-40.9h-6.3V331.7L760.5,331.7z M755.8,319c0,0,0.4-1.4,0.4-3.5
		c0-7.6-4.8-13-12.3-13c-7.7,0-13.3,6-13.3,14.9c0,9,5.3,14.9,13.4,14.9c5.9,0,10.2-3.5,11.9-7.3l-5.5-3.2c-0.5,3.2-2.8,5.6-6.4,5.6
		c-4.3,0-7.1-3.4-7.4-8.4L755.8,319L755.8,319z M750.2,314.5h-13.4c0.7-4.3,3.3-7.2,7.1-7.2C747.8,307.3,750.2,310.6,750.2,314.5
		L750.2,314.5z M719.2,331.7h6.5v-39.1h-6.5v16.2h-17.9v-16.2h-6.6v39.1h6.6v-17.1h17.9V331.7L719.2,331.7z M805.4,303.2H799v28.5
		h6.3v-28.5H805.4z M847,290.8h-6.3v40.9h6.3v-7.1l4.6-5.6l8,12.7h6.9l-10.9-17.2l9.7-11.2h-7.4l-7.4,9.2c-1.8,2.2-3.8,5.4-3.8,5.4
		h-0.1c0,0,0.3-3.6,0.3-7.1v-20H847z M875.3,303.2H869v28.5h6.3V303.2L875.3,303.2z M891.8,312c0,12.7,7.9,20.3,17.6,20.3
		c8.6,0,14.8-6.5,15.8-12.8l-6.2-3.8c-0.3,5.9-3.4,10.8-9.7,10.8c-7.3,0-10.9-6.5-10.9-14.5s3.6-14.3,10.9-14.3
		c6.3,0,9.4,4.7,9.7,10.6l6.2-3.8c-1-6.3-7.2-12.6-15.8-12.6C899.7,291.9,891.8,299.4,891.8,312L891.8,312z M927.9,317.4
		c0,9,5.3,14.9,13.4,14.9c5.9,0,10.2-3.5,11.9-7.3l-5.5-3.2c-0.5,3.2-2.8,5.6-6.4,5.6c-4.3,0-7.1-3.4-7.4-8.4h19.2
		c0,0,0.4-1.4,0.4-3.5c0-7.6-4.8-13-12.3-13C933.5,302.5,927.9,308.5,927.9,317.4L927.9,317.4z M934.1,314.5
		c0.7-4.3,3.3-7.2,7.1-7.2c4,0,6.3,3.3,6.3,7.2H934.1L934.1,314.5z M964,303.2h-6.3v28.5h6.3V315c0-4,2.3-7,6.2-7
		c3.6,0,5.4,2.1,5.4,6.9v16.8h6.3v-18c0-7.3-3.6-11.1-9.3-11.1c-4.9,0-7.5,3-8.7,5.5h-0.1L964,303.2L964,303.2z M989.2,303.2h-4.9v5
		h4.9v16.2c0,5.9,3.1,7.9,7.3,7.9c3.1,0,5.5-1.6,6.4-2.7l-2.8-4.7c-0.4,1-1.2,2.3-2.7,2.3s-2.3-0.8-2.3-3.3v-15.6h6.9v-5h-6.9v-9.8
		l-6.1,3.7v6H989.2z M1012,303.2h-6.3v28.5h6.3v-16.3c0-4.1,1.4-7.3,4.5-7.3c2.3,0,3.2,1.9,3.2,4.1c0,1.9-0.4,4.1-0.5,4.5l5.8-3.4
		c0,0,0.3-1.4,0.3-3.1c0-4.1-2.4-7.5-6.4-7.5c-3.5,0-5.8,2.4-7.1,5.4h-0.1L1012,303.2L1012,303.2z M1045.2,311.6
		c0,2.2-2.3,2.7-6.4,3.6c-4.7,1-10.6,2.6-10.6,8.8c0,5.3,3.8,8.4,9,8.4c4.5,0,7.2-2.5,8.4-4.4h0.2c0.2,1.4,0.5,2.3,1.4,3.7h4.9
		c-0.5-1.8-0.7-3.5-0.7-6.6v-12.3c0-7.1-5-10.3-11.1-10.3c-6.2,0-11,3.6-12.8,8.5l5.6,3.2c0.7-3.7,3.1-6.6,7.1-6.6
		C1043,307.6,1045.2,309.2,1045.2,311.6L1045.2,311.6z M1045.5,316.9v3.8c0,4.2-3.2,6.6-6.7,6.6c-2.9,0-4.5-1.5-4.5-3.7
		c0-2.8,3-3.6,5.9-4.2C1042.8,318.9,1044.6,318.2,1045.5,316.9L1045.5,316.9z M1063.2,290.8h-6.3v40.9h6.3V290.8L1063.2,290.8z
		 M1088,292.6h-6.6v39.1h24.6v-5.9h-18V292.6L1088,292.6z M1108.2,295.2c0,2.3,1.7,3.8,4,3.8c2.2,0,3.9-1.6,3.9-3.8
		c0-2.2-1.7-3.8-3.9-3.8C1109.9,291.5,1108.2,293,1108.2,295.2L1108.2,295.2z M1115.3,303.2h-6.3v28.5h6.3V303.2L1115.3,303.2z
		 M1127.2,290.8h-6.2v40.9h6.2v-4.4h0.1c1.2,2.1,3.8,5,8.5,5c6.3,0,11.5-6,11.5-14.9s-5.3-14.9-11.5-14.9c-4.7,0-7.5,2.9-8.8,5.5
		h-0.1c0,0,0.3-3.6,0.3-7V290.8L1127.2,290.8z M1127,317.4c0-5.5,2.4-9.8,7-9.8s7,4.3,7,9.8s-2.4,9.8-7,9.8
		C1129.4,327.2,1127,322.9,1127,317.4L1127,317.4z M1157.9,303.2h-6.3v28.5h6.3v-16.3c0-4.1,1.4-7.3,4.5-7.3c2.3,0,3.2,1.9,3.2,4.1
		c0,1.9-0.4,4.1-0.5,4.5l5.8-3.4c0,0,0.3-1.4,0.3-3.1c0-4.1-2.4-7.5-6.4-7.5c-3.5,0-5.8,2.4-7.1,5.4h-0.1L1157.9,303.2L1157.9,303.2
		z M1191.1,311.6c0,2.2-2.3,2.7-6.4,3.6c-4.7,1-10.6,2.6-10.6,8.8c0,5.3,3.8,8.4,9,8.4c4.5,0,7.2-2.5,8.4-4.4h0.2
		c0.2,1.4,0.5,2.3,1.4,3.7h4.9c-0.5-1.8-0.7-3.5-0.7-6.6v-12.3c0-7.1-5-10.3-11.1-10.3c-6.2,0-11,3.6-12.8,8.5l5.6,3.2
		c0.7-3.7,3.1-6.6,7.1-6.6C1188.9,307.6,1191.1,309.2,1191.1,311.6L1191.1,311.6z M1191.3,316.9v3.8c0,4.2-3.2,6.6-6.7,6.6
		c-2.9,0-4.5-1.5-4.5-3.7c0-2.8,3-3.6,5.9-4.2C1188.7,318.9,1190.5,318.2,1191.3,316.9L1191.3,316.9z M1209,303.2h-6.3v28.5h6.3
		v-16.3c0-4.1,1.4-7.3,4.5-7.3c2.3,0,3.2,1.9,3.2,4.1c0,1.9-0.4,4.1-0.5,4.5l5.8-3.4c0,0,0.3-1.4,0.3-3.1c0-4.1-2.4-7.5-6.4-7.5
		c-3.5,0-5.8,2.4-7.1,5.4h-0.1L1209,303.2L1209,303.2z M1222.9,303.2l10.4,28.6l-0.2,0.6c-1.2,3.7-4.1,5.8-7.7,6.8l5,4.2
		c5-1.9,7.2-6.4,8.6-10.6l10-29.6h-6.4l-4.1,13.2c-1,3.4-2.2,7.8-2.2,7.8h-0.2c0,0-1.4-4.7-2.4-8l-4.2-13.1h-6.6V303.2z"/>
</g>
</svg>
