<?xml version="1.0" encoding="UTF-8" standalone="no"?>
<svg width="67px" height="67px" viewBox="0 0 67 67" version="1.1" xmlns="http://www.w3.org/2000/svg" xmlns:xlink="http://www.w3.org/1999/xlink">
    <!-- Generator: Sketch 49.3 (51167) - http://www.bohemiancoding.com/sketch -->
    <title>Page 1</title>
    <desc>Created with Sketch.</desc>
    <defs>
        <polygon id="path-1" points="0 0.0146342105 66.985391 0.0146342105 66.985391 67 0 67"></polygon>
    </defs>
    <g id="4.-Layouts" stroke="none" stroke-width="1" fill="none" fill-rule="evenodd">
        <g id="1-Etusivu-Copy-7" transform="translate(-179.000000, -184.000000)">
            <g id="Page-1" transform="translate(179.000000, 184.000000)">
                <polygon id="Fill-1" fill="#000000" points="24 52 24 46.5550599 31.6376586 46.5550599 31.6376586 30.4449401 24 30.4449401 24 25 37.6354121 25 37.6354121 46.5550599 44 46.5550599 44 52"></polygon>
                <g id="Group-7">
                    <path d="M33.4927711,19.5442274 C31.1805154,19.5442274 29.3060267,17.6699906 29.3060267,15.357735 C29.3060267,13.0454793 31.1805154,11.1712425 33.4927711,11.1712425 C35.8047748,11.1712425 37.6792635,13.0454793 37.6792635,15.357735 C37.6792635,17.6699906 35.8047748,19.5442274 33.4927711,19.5442274 Z" id="Fill-2" fill="#000000"></path>
                    <g id="Group-6">
                        <mask id="mask-2" fill="white">
                            <use xlink:href="#path-1"></use>
                        </mask>
                        <g id="Clip-5"></g>
                        <path d="M33.4927459,5.59679211 C37.2631331,5.59679211 40.9176556,6.33404398 44.3550579,7.78789361 C47.677603,9.19338233 50.663385,11.2066568 53.2285278,13.7715477 C55.7934188,16.3366906 57.8064414,19.3222207 59.2119301,22.6450177 C60.6660316,26.0824199 61.4032835,29.7369425 61.4032835,33.5073297 C61.4032835,37.2777169 60.6660316,40.9322395 59.2119301,44.3696417 C57.8064414,47.6924387 55.7934188,50.6779688 53.2285278,53.2431117 C50.663385,55.8080026 47.677603,57.8212771 44.3550579,59.2267658 C40.9176556,60.6806154 37.2631331,61.4178673 33.4927459,61.4178673 C29.7221068,61.4178673 26.0675842,60.6806154 22.6304338,59.2267658 C19.3076368,57.8212771 16.3221068,55.8080026 13.7569639,53.2431117 C11.1918211,50.6779688 9.1787985,47.6924387 7.77330977,44.3696417 C6.31946015,40.9322395 5.58195639,37.2777169 5.58195639,33.5073297 C5.58195639,29.7369425 6.31946015,26.0824199 7.77330977,22.6450177 C9.1787985,19.3222207 11.1918211,16.3366906 13.7569639,13.7715477 C16.3221068,11.2066568 19.3076368,9.19338233 22.6304338,7.78789361 C26.0675842,6.33404398 29.7221068,5.59679211 33.4927459,5.59679211 M33.4927459,0.0146342105 C14.9952045,0.0146342105 -0.000201503759,15.0097883 -0.000201503759,33.5073297 C-0.000201503759,52.0048711 14.9952045,67.0000252 33.4927459,67.0000252 C51.9902872,67.0000252 66.9854414,52.0048711 66.9854414,33.5073297 C66.9854414,15.0097883 51.9902872,0.0146342105 33.4927459,0.0146342105" id="Fill-4" fill="#000000" mask="url(#mask-2)"></path>
                    </g>
                </g>
            </g>
        </g>
    </g>
</svg>