<?xml version="1.0" encoding="utf-8"?>
<!-- Generator: Adobe Illustrator 19.0.1, SVG Export Plug-In . SVG Version: 6.00 Build 0)  -->
<!DOCTYPE svg PUBLIC "-//W3C//DTD SVG 1.1//EN" "http://www.w3.org/Graphics/SVG/1.1/DTD/svg11.dtd" [
	<!ENTITY ns_extend "http://ns.adobe.com/Extensibility/1.0/">
	<!ENTITY ns_ai "http://ns.adobe.com/AdobeIllustrator/10.0/">
	<!ENTITY ns_graphs "http://ns.adobe.com/Graphs/1.0/">
	<!ENTITY ns_vars "http://ns.adobe.com/Variables/1.0/">
	<!ENTITY ns_imrep "http://ns.adobe.com/ImageReplacement/1.0/">
	<!ENTITY ns_sfw "http://ns.adobe.com/SaveForWeb/1.0/">
	<!ENTITY ns_custom "http://ns.adobe.com/GenericCustomNamespace/1.0/">
	<!ENTITY ns_adobe_xpath "http://ns.adobe.com/XPath/1.0/">
]>
<svg version="1.1" id="Layer_1" xmlns:x="&ns_extend;" xmlns:i="&ns_ai;" xmlns:graph="&ns_graphs;"
	 xmlns="http://www.w3.org/2000/svg" xmlns:xlink="http://www.w3.org/1999/xlink" x="0px" y="0px" viewBox="694.7 223.4 684.1 53.2"
	 style="enable-background:new 694.7 223.4 684.1 53.2;" xml:space="preserve">
<metadata>
	<sfw  xmlns="&ns_sfw;">
		<slices></slices>
		<sliceSourceBounds  height="53.2" width="684.1" bottomLeftOrigin="true" x="419.7" y="384.4"></sliceSourceBounds>
	</sfw>
</metadata>
<g>
	<path d="M1367.9,247.7l9.7-11.2h-7.4l-7.4,9.2c-1.8,2.2-3.8,5.4-3.8,5.4h-0.1c0,0,0.3-3.6,0.3-7.1v-19.9h-6.3V265h6.3v-7.1l4.6-5.6
		l8,12.7h7L1367.9,247.7L1367.9,247.7z M1348.3,252.3c0,0,0.4-1.4,0.4-3.5c0-7.6-4.8-13-12.3-13c-7.7,0-13.3,6-13.3,14.9
		c0,9,5.3,14.9,13.4,14.9c5.9,0,10.2-3.5,11.9-7.3l-5.5-3.2c-0.5,3.2-2.8,5.6-6.4,5.6c-4.3,0-7.1-3.4-7.4-8.4H1348.3L1348.3,252.3z
		 M1342.7,247.7h-13.5c0.7-4.3,3.3-7.2,7.1-7.2C1340.3,240.6,1342.7,243.8,1342.7,247.7L1342.7,247.7z M1314.8,257.1v-15.6h6.9v-5
		h-6.9v-9.8l-6.1,3.7v6.2h-4.9v5h4.9v16.2c0,5.9,3.1,7.9,7.4,7.9c3.1,0,5.5-1.6,6.4-2.7l-2.8-4.7c-0.4,1-1.2,2.3-2.7,2.3
		C1315.6,260.4,1314.8,259.5,1314.8,257.1L1314.8,257.1z M1206.5,250.7c0-8.9-5.3-14.9-11.5-14.9c-4.7,0-7.5,2.9-8.8,5.5h-0.1
		c0,0,0.3-3.6,0.3-7V224h-6.3v40.9h6.2v-4.4h0.1c1.2,2.1,3.8,5,8.5,5C1201.2,265.6,1206.5,259.6,1206.5,250.7L1206.5,250.7z
		 M1200.2,250.7c0,5.5-2.4,9.8-7,9.8c-4.6,0-7-4.3-7-9.8s2.4-9.8,7-9.8C1197.8,240.9,1200.2,245.2,1200.2,250.7L1200.2,250.7z
		 M1168.3,264.9h6.2v-18.6c0-6.7-3.4-10.5-9-10.5c-4.7,0-7.3,2.8-8.6,5.5h-0.2c-1.2-3.6-3.8-5.5-7.6-5.5c-4.5,0-6.9,3-8.1,5.5h-0.2
		l0.4-4.9h-6.2v28.5h6.2v-16.8c0-4.2,2.1-6.9,5.6-6.9c2.9,0,4.9,1.9,4.9,5.7v18h6.2v-16.6c0-4.4,2.1-7.2,5.6-7.2
		c3.2,0,4.9,2,4.9,6.3L1168.3,264.9L1168.3,264.9z M1111.9,236.4h-6.3v18c0,7.3,3.4,11.1,9.2,11.1c4.8,0,7.2-3,8.5-5.5h0.2l-0.4,4.9
		h6.3v-28.5h-6.4v16.4c0,4.1-2.1,7.3-6,7.3c-3.6,0-5.1-2.1-5.1-6.9V236.4L1111.9,236.4z M1053.1,264.9h6.3v-18
		c0-7.3-3.6-11.1-9.3-11.1c-4.9,0-7.5,3-8.7,5.5h-0.1l0.3-4.9h-6.3v28.5h6.3v-16.7c0-4,2.3-7,6.2-7c3.6,0,5.4,2.1,5.4,6.9
		L1053.1,264.9L1053.1,264.9z M1030.6,252.3c0,0,0.4-1.4,0.4-3.5c0-7.6-4.8-13-12.3-13c-7.7,0-13.3,6-13.3,14.9
		c0,9,5.3,14.9,13.4,14.9c5.9,0,10.2-3.5,11.9-7.3l-5.5-3.2c-0.5,3.2-2.8,5.6-6.4,5.6c-4.3,0-7.1-3.4-7.4-8.4H1030.6L1030.6,252.3z
		 M1025,247.7h-13.4c0.7-4.3,3.3-7.2,7.1-7.2C1022.7,240.6,1025,243.8,1025,247.7L1025,247.7z M984.4,250.7c0-5.5,2.1-9.9,6.8-9.9
		c4.2,0,6,3.6,6,7.6l5.8-3.2c-0.8-4.3-4.7-9.4-11.9-9.4c-7.9,0-13.1,6-13.1,14.9s5.3,14.9,13.1,14.9c7.2,0,11.1-5.1,11.9-9.4
		l-5.8-3.2c0,4-1.9,7.6-6,7.6C986.5,260.6,984.4,256.2,984.4,250.7L984.4,250.7z M924.3,236.4H918v28.5h6.3v-16.3
		c0-4.1,1.4-7.3,4.5-7.3c2.3,0,3.2,1.9,3.2,4.1c0,1.9-0.4,4.1-0.5,4.5l5.8-3.4c0,0,0.3-1.4,0.3-3.1c0-4.1-2.4-7.5-6.4-7.5
		c-3.5,0-5.8,2.4-7.1,5.4H924L924.3,236.4L924.3,236.4z M913.8,250.7c0-8.9-5.4-14.9-13.3-14.9c-7.9,0-13.3,6-13.3,14.9
		s5.5,14.9,13.3,14.9S913.8,259.6,913.8,250.7L913.8,250.7z M907.5,250.7c0,5.5-2.3,9.9-7,9.9s-7-4.4-7-9.9s2.3-9.9,7-9.9
		S907.5,245.2,907.5,250.7L907.5,250.7z M873,236.4h-4.7v5h4.7v23.4h6.1v-23.4h6.7v-5h-6.7v-3.2c0-3.2,1.1-4.9,3.4-4.9
		c2.2,0,3.1,2,3.2,3.8l5.6-3.4c-1.4-2.5-4.3-5.3-9-5.3c-5.5,0-9.3,3.4-9.3,9.7V236.4L873,236.4z M866.9,267.2c0-5.3-4.2-7.8-9.8-7.8
		c-3.1,0-5.7,0.5-8.2,0.5c-2.7,0-3.7-0.6-3.7-1.9c0-1.8,3.1-3,6.4-3c6.2,0,11.4-3.7,11.4-9.4c0-3.2-1.9-5.2-3.2-6.4v-0.1
		c0.6,0.2,1.7,0.4,2.5,0.4c3,0,4.6-1.5,4.6-5.1l-6.2-3.5c0.1,0.8,0.3,1.6,0.3,2.5c0,1.8-0.8,3-3.2,3c-2.3,0-3.7-0.7-6.4-0.7
		c-6.2,0-11.2,3.6-11.2,9.5c0,4,2.3,6.6,5.5,8v0.2c-3.3,0.7-6.3,2.4-6.3,5.5c0,2.4,1.8,3.7,3.9,4.4v0.2c-2.9,0.5-6,2.5-6,5.6
		c0,5.3,7.1,7.5,14.5,7.5C859.5,276.5,866.9,274,866.9,267.2L866.9,267.2z M845.9,245.4c0-3.2,2.5-5.2,5.6-5.2s5.6,2,5.6,5.2
		s-2.5,5.1-5.6,5.1C848.4,250.6,845.9,248.6,845.9,245.4L845.9,245.4z M860.9,267.8c0,3.1-4.1,4.4-9.3,4.4c-4.8,0-8.9-1.1-8.9-3.6
		c0-3.3,7.6-3.8,11.7-3.8C857.9,264.7,860.9,265.5,860.9,267.8L860.9,267.8z M828.8,264.9h6.3v-18c0-7.3-3.6-11.1-9.3-11.1
		c-4.9,0-7.5,3-8.7,5.5H817l0.3-4.9H811v28.5h6.3v-16.7c0-4,2.3-7,6.2-7c3.6,0,5.4,2.1,5.4,6.9v16.8H828.8z M805.4,236.4H799v28.5
		h6.3v-28.5H805.4z M806.1,228.5c0-2.2-1.7-3.8-3.9-3.8c-2.3,0-4,1.6-4,3.8c0,2.3,1.7,3.8,4,3.8
		C804.4,232.3,806.1,230.7,806.1,228.5L806.1,228.5z M795,256.9c0-5.3-4.1-7.2-8.8-8.6c-4.1-1.3-8.4-1.6-8.4-4.4
		c0-2.2,2.2-3.3,4.6-3.3c3.8,0,6.3,2.6,6.9,5.5l5.5-3.2c-2-4.2-7.1-7-12.7-7c-5.4,0-10.4,3.2-10.4,8.4c0,5.4,5.5,7.4,9.8,8.5
		c3.8,1.1,7.3,1.7,7.3,4.6c0,2.4-2.2,3.6-4.8,3.6c-4.7,0-7.3-3.1-8-6.6l-5.7,3.2c1.9,5,6.8,8.1,13.8,8.1
		C789.9,265.6,795,262.3,795,256.9L795,256.9z M760.5,264.9h6.3V224h-6.3V264.9L760.5,264.9z M755.8,252.3c0,0,0.4-1.4,0.4-3.5
		c0-7.6-4.8-13-12.3-13c-7.7,0-13.3,6-13.3,14.9c0,9,5.3,14.9,13.4,14.9c5.9,0,10.2-3.5,11.9-7.3l-5.5-3.2c-0.5,3.2-2.8,5.6-6.4,5.6
		c-4.3,0-7.1-3.4-7.4-8.4H755.8L755.8,252.3z M750.2,247.7h-13.4c0.7-4.3,3.3-7.2,7.1-7.2C747.8,240.6,750.2,243.8,750.2,247.7
		L750.2,247.7z M719.2,264.9h6.5v-39.1h-6.5V242h-17.9v-16.2h-6.6v39.1h6.6v-17.1h17.9V264.9L719.2,264.9z M946.3,243.8
		c0-2.2,2.2-3.3,4.6-3.3c3.8,0,6.3,2.6,6.9,5.5l5.5-3.2c-2-4.2-7.1-7-12.7-7c-5.4,0-10.4,3.2-10.4,8.4c0,5.4,5.5,7.4,9.8,8.5
		c3.8,1.1,7.3,1.7,7.3,4.6c0,2.4-2.2,3.6-4.8,3.6c-4.7,0-7.3-3.1-8-6.6l-5.6,3.2c1.9,5,6.8,8.1,13.8,8.1c5.6,0,10.7-3.3,10.7-8.7
		c0-5.3-4.1-7.2-8.8-8.6C950.5,246.9,946.3,246.6,946.3,243.8L946.3,243.8z M1061.8,241.5h4.9v16.2c0,5.9,3.1,7.9,7.3,7.9
		c3.1,0,5.5-1.6,6.4-2.7l-2.8-4.7c-0.4,1-1.2,2.3-2.7,2.3s-2.3-0.8-2.3-3.3v-15.6h6.9v-5h-6.9v-9.8l-6.1,3.7v6.2h-4.9v4.8H1061.8z
		 M1089.3,241.3h-0.1l0.3-4.9h-6.3v28.5h6.3v-16.3c0-4.1,1.4-7.3,4.5-7.3c2.3,0,3.2,1.9,3.2,4.1c0,1.9-0.4,4.1-0.5,4.5l5.8-3.4
		c0,0,0.3-1.4,0.3-3.1c0-4.1-2.4-7.5-6.4-7.5C1092.9,235.9,1090.6,238.3,1089.3,241.3L1089.3,241.3z M1217.1,236.4h-6.3v28.5h6.3
		V236.4L1217.1,236.4z M1210,228.5c0,2.3,1.7,3.8,4,3.8c2.2,0,3.9-1.6,3.9-3.8c0-2.2-1.7-3.8-3.9-3.8
		C1211.7,224.7,1210,226.3,1210,228.5L1210,228.5z M1229,224h-6.3v40.9h6.2v-4.4h0.1c1.2,2.1,3.8,5,8.5,5c6.3,0,11.5-6,11.5-14.9
		s-5.3-14.9-11.5-14.9c-4.7,0-7.5,2.9-8.8,5.5h-0.1c0,0,0.3-3.6,0.3-7L1229,224L1229,224z M1228.8,250.7c0-5.5,2.4-9.8,7-9.8
		c4.6,0,7,4.3,7,9.8s-2.4,9.8-7,9.8C1231.2,260.4,1228.8,256.2,1228.8,250.7L1228.8,250.7z M1259.8,224h-6.3v40.9h6.3V224
		L1259.8,224z M1264.7,228.5c0,2.3,1.7,3.8,4,3.8c2.2,0,3.9-1.6,3.9-3.8c0-2.2-1.7-3.8-3.9-3.8
		C1266.4,224.7,1264.7,226.3,1264.7,228.5L1264.7,228.5z M1271.9,236.4h-6.3v28.5h6.3V236.4L1271.9,236.4z M1276,250.7
		c0,8.9,5.5,14.9,13.3,14.9c7.9,0,13.3-6,13.3-14.9s-5.4-14.9-13.3-14.9C1281.5,235.8,1276,241.8,1276,250.7L1276,250.7z
		 M1282.3,250.7c0-5.5,2.3-9.9,7-9.9c4.7,0,7,4.4,7,9.9s-2.3,9.9-7,9.9C1284.6,260.6,1282.3,256.2,1282.3,250.7L1282.3,250.7z"/>
</g>
</svg>
